<svg data-component="svg" viewBox="0 0 10240 7680" aria-hidden="true" class="sc-dbb91b56-0 LKrFF" style="background-image: url(&quot;https://mapsapi.tmol.co/maps/geometry/image/61/19/611944?removeFilters=ISM_Shadow&amp;tmSansFonts=true&amp;app=PRD1741_ICCP-FE&quot;);"><g class="seats"></g><g class="polygons"><path data-component="svg__section" data-section-id="s_38" data-section-name="PRIME A EAST 2" data-active="false" d="M3191.21,5082.99C3506.79,5154.67,3816.31,5224.97,4125.83,5295.27C4433.56,5325.23,4741.29,5355.2,5049.02,5385.16C5049.02,5313.99,5049.02,5242.82,5049.02,5171.65C4752.33,5142.76,4455.65,5113.88,4158.96,5084.99C3858.78,5016.81,3558.59,4948.63,3251.36,4878.85L3251.36,4878.85C3231.31,4946.9,3211.26,5014.95,3191.21,5082.99Z" class="sc-b5a7c7b3-0 gieJro"></path><path data-component="svg__section" data-section-id="s_37" data-section-name="PRIME A EAST 1" data-active="false" d="M5329.13,5387.67C5645.44,5356.87,5961.75,5326.07,6278.05,5295.27C6590.82,5224.23,6903.59,5153.2,7222.61,5080.74C7202.56,5012.69,7182.5,4944.64,7162.45,4876.59C6851.75,4947.16,6548.33,5016.07,6244.91,5084.99C5939.65,5114.71,5634.39,5144.43,5329.13,5174.16L5329.13,5174.16C5329.13,5245.33,5329.13,5316.5,5329.13,5387.67Z" class="sc-b5a7c7b3-0 gieJro"></path><path data-component="svg__section" data-section-id="s_39" data-section-name="PRIME B NORTH 1" data-active="true" d="M7412.23,2912.16C7663.68,2912.16,7915.13,2912.16,8166.58,2912.16C8166.58,2782.24,8166.58,2652.33,8166.58,2522.41C7944.64,2230.66,7722.7,1938.91,7502.48,1649.41C7409.18,1966.02,7315.89,2282.64,7222.6,2599.25C7244.59,2604.23,7266.58,2609.2,7288.58,2614.18C7329.8,2668.36,7371.02,2722.55,7412.23,2776.73L7412.23,2776.73C7412.23,2821.88,7412.23,2867.02,7412.23,2912.16Z" class="sc-b5a7c7b3-0 coahRM"></path><path data-component="svg__section" data-section-id="s_34" data-section-name="PRIME A WEST 2" data-active="false" d="M5201.91,2500.15C5201.91,2429.3,5201.91,2358.45,5201.91,2287.6C5228.26,2287.6,5254.6,2287.6,5280.95,2287.6C5613.32,2319.97,5945.69,2352.33,6278.05,2384.69C6590.82,2455.73,6903.59,2526.77,7222.61,2599.23C7202.56,2667.28,7182.5,2735.34,7162.45,2803.39C6851.75,2732.82,6548.33,2663.91,6244.91,2594.99C5920.23,2563.38,5595.55,2531.77,5270.88,2500.15L5270.88,2500.15C5247.89,2500.15,5224.9,2500.15,5201.91,2500.15Z" class="sc-b5a7c7b3-0 gieJro"></path><path data-component="svg__section" data-section-id="s_78" data-section-name="GRANDSTAND EAST" data-active="true" d="M4150.99,5297.73C4142.6,5296.91,4134.21,5296.1,4125.82,5295.28C3816.31,5224.98,3506.8,5154.68,3191.23,5083.01C3095.28,5408.62,2999.34,5734.24,2903.39,6059.86C3037.32,6090.28,3187.5,6124.4,3321.64,6154.87C3260.87,6406.31,3200.11,6657.75,3139.35,6909.19C3371.43,6961.9,3605.39,7015.04,3839.36,7068.18C4238.2,7107.01,4637.04,7145.85,5035.88,7184.68C5146.59,7184.68,5257.3,7184.68,5368.0,7184.68C5766.85,7145.85,6165.69,7107.01,6564.53,7068.18C6798.48,7015.04,7032.43,6961.9,7264.5,6909.2C7203.74,6657.76,7142.97,6406.32,7082.21,6154.88C7206.29,6126.7,7351.72,6093.66,7475.79,6065.48C7484.69,6053.8,7493.58,6042.13,7502.47,6030.45C7409.19,5713.88,7315.91,5397.31,7222.63,5080.74C6903.6,5153.2,6590.83,5224.24,6278.05,5295.28C6258.1,5297.22,6238.15,5299.16,6218.21,5301.1C5999.28,5322.41,5780.35,5343.72,5561.42,5365.03C5483.93,5372.57,5406.45,5380.1,5328.96,5387.64C5328.96,5501.69,5328.96,5615.74,5328.96,5729.78C5302.77,5729.78,5075.05,5729.78,5048.86,5729.78C5048.86,5614.89,5048.86,5500.0,5048.86,5385.1C4971.45,5377.56,4894.04,5370.05,4816.63,5362.51L4816.63,5362.51C4594.75,5340.92,4372.87,5319.32,4150.99,5297.73Z" class="sc-b5a7c7b3-0 iyhuUQ"></path><path data-component="svg__section" data-section-id="s_33" data-section-name="PRIME A WEST 1" data-active="false" d="M3251.37,2801.13C3231.31,2733.08,3211.26,2665.02,3191.21,2596.97C3506.79,2525.29,3816.31,2454.99,4125.83,2384.69C4458.2,2352.33,4790.57,2319.97,5122.93,2287.6C5149.26,2287.6,5175.58,2287.6,5201.91,2287.6C5201.91,2358.45,5201.91,2429.3,5201.91,2500.15C5178.94,2500.15,5155.97,2500.15,5133.0,2500.15C4808.32,2531.77,4483.64,2563.38,4158.96,2594.99L4158.96,2594.99C3858.78,2663.17,3558.6,2731.35,3251.37,2801.13Z" class="sc-b5a7c7b3-0 gieJro"></path><path data-component="svg__section" data-section-id="s_77" data-section-name="GRANDSTAND WEST" data-active="true" d="M7082.21,1525.12C7142.97,1273.68,7203.74,1022.24,7264.5,770.805C7032.43,718.097,6798.48,664.96,6564.53,611.824C6165.69,572.989,5766.85,534.154,5368.0,495.319C5257.3,495.319,5146.59,495.319,5035.88,495.319C4637.04,534.154,4238.2,572.989,3839.36,611.824C3605.39,664.963,3371.43,718.102,3139.35,770.814C3200.11,1022.25,3260.87,1273.69,3321.64,1525.13C3201.23,1552.48,3023.61,1592.77,2903.38,1620.08C2999.33,1945.71,3095.28,2271.34,3191.23,2596.97C3506.8,2525.3,3816.31,2455.0,4125.83,2384.7C4134.21,2383.89,5020.83,2297.53,5122.92,2287.59C5175.59,2287.59,5228.26,2287.59,5280.94,2287.59C5374.44,2296.7,6258.1,2382.76,6278.05,2384.7C6590.82,2455.74,6903.6,2526.78,7222.63,2599.24C7315.92,2282.63,7409.21,1966.02,7502.5,1649.41C7493.63,1637.77,7484.77,1626.13,7475.91,1614.48L7475.91,1614.48C7351.55,1586.24,7206.57,1553.37,7082.21,1525.12Z" class="sc-b5a7c7b3-0 iyhuUQ"></path><path data-component="svg__section" data-section-id="s_36" data-section-name="PRIME A NORTH 2" data-active="false" d="M7222.65,5080.89C7244.57,5075.93,7266.49,5070.98,7288.41,5066.03C7329.69,5011.77,7370.96,4957.51,7412.24,4903.25C7412.24,4548.83,7412.24,4194.42,7412.24,3840.0C7342.06,3840.0,7271.89,3840.0,7201.72,3840.0C7201.72,4182.57,7201.72,4525.15,7201.72,4867.72C7188.63,4870.67,7175.54,4873.62,7162.45,4876.56L7162.45,4876.56C7182.51,4944.67,7202.58,5012.78,7222.65,5080.89Z" class="sc-b5a7c7b3-0 gieJro"></path><path data-component="svg__section" data-section-id="s_35" data-section-name="PRIME A NORTH 1" data-active="false" d="M7162.43,2803.44C7182.49,2735.38,7202.55,2667.31,7222.6,2599.24C7244.6,2604.22,7266.59,2609.2,7288.58,2614.17C7329.8,2668.36,7371.02,2722.54,7412.24,2776.73C7412.24,3131.15,7412.24,3485.57,7412.24,3839.99C7342.06,3839.99,7271.89,3839.99,7201.72,3839.99C7201.72,3497.46,7201.72,3154.92,7201.72,2812.38L7201.72,2812.38C7188.62,2809.4,7175.53,2806.42,7162.43,2803.44Z" class="sc-b5a7c7b3-0 gieJro"></path><path data-component="svg__section" data-section-id="s_41" data-section-name="PRIME B NORTH 3" data-active="true" d="M8166.55,3839.98C8166.55,4149.25,8166.55,4458.53,8166.55,4767.8C7915.11,4767.8,7663.68,4767.8,7412.24,4767.8C7412.24,4458.53,7412.24,4149.25,7412.24,3839.98L7412.24,3839.98C7663.68,3839.98,7915.11,3839.98,8166.55,3839.98Z" class="sc-b5a7c7b3-0 coahRM"></path><path data-component="svg__section" data-section-id="s_40" data-section-name="PRIME B NORTH 2" data-active="true" d="M8166.55,2912.18C8166.55,3221.45,8166.55,3530.71,8166.55,3839.98C7915.11,3839.98,7663.68,3839.98,7412.24,3839.98C7412.24,3530.71,7412.24,3221.45,7412.24,2912.18L7412.24,2912.18C7663.68,2912.18,7915.11,2912.18,8166.55,2912.18Z" class="sc-b5a7c7b3-0 coahRM"></path><path data-component="svg__section" data-section-id="s_42" data-section-name="PRIME B NORTH 4" data-active="true" d="M7222.66,5080.89C7315.93,5397.44,7409.2,5713.98,7502.47,6030.52C7722.69,5741.03,7944.64,5449.27,8166.58,5157.52C8166.58,5027.61,8166.58,4897.71,8166.58,4767.8C7915.13,4767.8,7663.68,4767.8,7412.23,4767.8C7412.23,4812.95,7412.23,4858.1,7412.23,4903.26C7370.96,4957.52,7329.68,5011.78,7288.4,5066.04L7288.4,5066.04C7266.49,5070.99,7244.57,5075.94,7222.66,5080.89Z" class="sc-b5a7c7b3-0 coahRM"></path></g><g class="labels"><text data-component="svg__label" data-label-id="s_38" transform="rotate(9,4179,5100) " font-size="118" class="sc-6bb52ea1-0 dehMbc"><tspan dy="1em" x="4179" y="5100" class="sc-6bb52ea1-1 hspHRx">PRIME A EAST 2</tspan></text><text data-component="svg__label" data-label-id="s_37" transform="rotate(-7,6281,5086) " font-size="118" class="sc-6bb52ea1-0 dehMbc"><tspan dy="1em" x="6281" y="5086" class="sc-6bb52ea1-1 hspHRx">PRIME A EAST 1</tspan></text><text data-component="svg__label" data-label-id="s_39" font-size="118" class="sc-6bb52ea1-0 dehMbc"><tspan dy="1em" x="7694" y="2380" class="sc-6bb52ea1-1 hspHRx">PRIME B</tspan><tspan dy="2em" x="7694" y="2380" class="sc-6bb52ea1-1 hspHRx">NORTH 1</tspan></text><text data-component="svg__label" data-label-id="s_34" transform="rotate(8,6228,2424) " font-size="118" class="sc-6bb52ea1-0 dehMbc"><tspan dy="1em" x="6228" y="2424" class="sc-6bb52ea1-1 hspHRx">PRIME A WEST 2</tspan></text><text data-component="svg__label" data-label-id="s_78" font-size="197" class="sc-6bb52ea1-0 dehMbc"><tspan dy="1em" x="5202" y="6145" class="sc-6bb52ea1-1 hspHRx">GRANDSTAND</tspan><tspan dy="2em" x="5202" y="6145" class="sc-6bb52ea1-1 hspHRx">EAST</tspan></text><text data-component="svg__label" data-label-id="s_33" transform="rotate(-9,4165,2420) " font-size="118" class="sc-6bb52ea1-0 dehMbc"><tspan dy="1em" x="4165" y="2420" class="sc-6bb52ea1-1 hspHRx">PRIME A WEST 1</tspan></text><text data-component="svg__label" data-label-id="s_77" font-size="197" class="sc-6bb52ea1-0 dehMbc"><tspan dy="1em" x="5202" y="1162" class="sc-6bb52ea1-1 hspHRx">GRANDSTAND</tspan><tspan dy="2em" x="5202" y="1162" class="sc-6bb52ea1-1 hspHRx">WEST</tspan></text><text data-component="svg__label" data-label-id="s_36" transform="rotate(90,7375,4398) " font-size="118" class="sc-6bb52ea1-0 dehMbc"><tspan dy="1em" x="7375" y="4398" class="sc-6bb52ea1-1 hspHRx">PRIME A NORTH 2</tspan></text><text data-component="svg__label" data-label-id="s_35" transform="rotate(90,7375,3260) " font-size="118" class="sc-6bb52ea1-0 dehMbc"><tspan dy="1em" x="7375" y="3260" class="sc-6bb52ea1-1 hspHRx">PRIME A NORTH 1</tspan></text><text data-component="svg__label" data-label-id="s_41" font-size="118" class="sc-6bb52ea1-0 dehMbc"><tspan dy="1em" x="7789" y="4170" class="sc-6bb52ea1-1 hspHRx">PRIME B</tspan><tspan dy="2em" x="7789" y="4170" class="sc-6bb52ea1-1 hspHRx">NORTH 3</tspan></text><text data-component="svg__label" data-label-id="s_40" font-size="118" class="sc-6bb52ea1-0 dehMbc"><tspan dy="1em" x="7789" y="3243" class="sc-6bb52ea1-1 hspHRx">PRIME B</tspan><tspan dy="2em" x="7789" y="3243" class="sc-6bb52ea1-1 hspHRx">NORTH 2</tspan></text><text data-component="svg__label" data-label-id="s_42" font-size="118" class="sc-6bb52ea1-0 dehMbc"><tspan dy="1em" x="7709" y="4999" class="sc-6bb52ea1-1 hspHRx">PRIME B</tspan><tspan dy="2em" x="7709" y="4999" class="sc-6bb52ea1-1 hspHRx">NORTH 4</tspan></text></g></svg>