<svg width="1024px" height="768px" viewBox="0 0 10240 7680" x="0px" y="0px" xmlns="http://www.w3.org/2000/svg"><defs></defs><path d="M1823.04,2708.86C1823.04,2708.86,1825.42,3799.07,1827.8,4889.28L1827.8,4889.28L2964.03,7130.47L3799.17,7320.09L5024.21,7434.85C5201.96,7434.85,5379.71,7434.85,5379.71,7434.85C5379.71,7434.85,5992.21,7377.47,6604.72,7320.09L6604.72,7320.09L7439.5,7130.67L8416.71,5217.8L8416.71,2462.22L7439.41,549.43L6604.74,359.908C5992.13,302.528,5379.52,245.148,5379.52,245.148C5379.52,245.148,5023.9,245.18,5023.9,245.18C5023.9,245.18,3799.66,359.86,3799.66,359.86C3799.66,359.86,3381.8,454.645,2963.95,549.431L2963.95,549.431C2395.63,1631.27,1827.32,2713.11,1823.04,2708.86Z" id="Poche" fill="#dddddd" fill-opacity="1.0" /><g id="SYMBOL1_g"><rect id="BACKGROUND_00000066474510291336847170000003646197182984958137" x="6778.69" y="4628.32" width="3153.42" height="1576.55" fill="#1a8f41" fill-opacity="1.0" transform="rotate(-180.0,6778.69,4628.32)" /><rect id="COURT_00000135665908925203785950000016325562847911712442" x="6223.18" y="4309.3" width="2042.39" height="938.341" fill="#006296" fill-opacity="1.0" transform="rotate(-180.0,6223.18,4309.3)" /><path d="M6229.29,4312.98L6229.29,3366.99L4174.53,3366.99L4174.53,4312.98L6229.29,4312.98ZM4184.77,4305.3L4184.77,4196.18L6219.05,4196.18L6219.05,4305.3L4184.77,4305.3ZM5747.8,3843.83L5747.8,4188.5L4656.03,4188.5L4656.03,3843.82L5747.8,3843.83ZM4656.03,3836.15L4656.03,3491.47L5747.8,3491.47L5747.8,3836.15L4656.03,3836.15ZM6219.05,3843.83L6219.05,4188.5L5755.48,4188.5L5755.48,3491.47L6219.05,3491.47L6219.05,3836.15L6203.89,3836.15L6203.89,3843.83L6219.05,3843.83ZM6219.06,3374.67L6219.05,3483.79L4184.77,3483.79L4184.77,3374.67L6219.06,3374.67ZM4184.77,3836.15L4184.77,3491.47L4648.35,3491.47L4648.35,4188.5L4184.77,4188.5L4184.77,3843.83L4199.93,3843.83L4199.93,3836.15L4184.77,3836.15Z" id="Shape027" fill="#ffffff" fill-opacity="1.0" /><path d="M5201.91,3399.99C5205.39,3399.99,5208.22,3402.81,5208.22,3406.3C5208.22,3409.79,5205.39,3412.61,5201.91,3412.61C5198.42,3412.61,5195.59,3409.78,5195.59,3406.3L5195.59,3406.3C5195.59,3402.81,5198.42,3399.98,5201.91,3399.99Z" id="00000036243337741197734320000011549069892457113510" fill="#ffffff" fill-opacity="1.0" /><path d="M5201.91,4267.37C5205.4,4267.37,5208.23,4270.2,5208.23,4273.69C5208.23,4277.17,5205.4,4280.0,5201.91,4280.0C5198.43,4280.0,5195.6,4277.17,5195.6,4273.69L5195.6,4273.69C5195.6,4270.2,5198.42,4267.37,5201.91,4267.37Z" id="00000098923009394556928750000001691570244257757352" fill="#ffffff" fill-opacity="1.0" /><path d="M5201.91,3297.59C5205.4,3297.59,5208.23,3300.41,5208.23,3303.9C5208.23,3307.39,5205.4,3310.21,5201.91,3310.21C5198.43,3310.21,5195.6,3307.39,5195.6,3303.9L5195.6,3303.9C5195.6,3300.41,5198.43,3297.59,5201.91,3297.59Z" id="00000094579861596780927800000011654091857361992126" fill="#ffffff" fill-opacity="1.0" /><path d="M5201.91,4369.77C5205.4,4369.77,5208.23,4372.6,5208.23,4376.09C5208.21,4379.58,5205.39,4382.4,5201.9,4382.4C5198.41,4382.4,5195.58,4379.58,5195.6,4376.09L5195.6,4376.09C5195.6,4372.6,5198.43,4369.77,5201.91,4369.77Z" id="00000008120068228564691090000008451373069944814777" fill="#ffffff" fill-opacity="1.0" /><rect id="NET_00000146475214707715289440000014695958161531654817" x="5204.53" y="4376.14" width="5.12023" height="1072.19" fill="#ffffff" fill-opacity="1.0" transform="rotate(-180.0,5204.53,4376.14)" /><rect id="CHAIR_00000051370037452428099250000010975666650212348564" x="5265.92" y="3282.07" width="127.901" height="127.901" fill="#cacaca" fill-opacity="1.0" transform="rotate(-180.0,5265.92,3282.07)" /></g><path d="M3191.21,5082.99C3506.79,5154.67,3816.31,5224.97,4125.83,5295.27C4433.56,5325.23,4741.29,5355.2,5049.02,5385.16C5049.02,5313.99,5049.02,5242.82,5049.02,5171.65C4752.33,5142.76,4455.65,5113.88,4158.96,5084.99C3858.78,5016.81,3558.59,4948.63,3251.36,4878.85L3251.36,4878.85C3231.31,4946.9,3211.26,5014.95,3191.21,5082.99Z" id="Prime A East 2" fill="#ffffff" fill-opacity="1.0" stroke="#dddddd" stroke-opacity="1.0" stroke-width="9.0" /><path d="M5329.13,5387.67C5645.44,5356.87,5961.75,5326.07,6278.05,5295.27C6590.82,5224.23,6903.59,5153.2,7222.61,5080.74C7202.56,5012.69,7182.5,4944.64,7162.45,4876.59C6851.75,4947.16,6548.33,5016.07,6244.91,5084.99C5939.65,5114.71,5634.39,5144.43,5329.13,5174.16L5329.13,5174.16C5329.13,5245.33,5329.13,5316.5,5329.13,5387.67Z" id="Prime A East 1" fill="#ffffff" fill-opacity="1.0" stroke="#dddddd" stroke-opacity="1.0" stroke-width="9.0" /><path d="M5201.91,2500.15C5201.91,2429.3,5201.91,2358.45,5201.91,2287.6C5228.26,2287.6,5254.6,2287.6,5280.95,2287.6C5613.32,2319.97,5945.69,2352.33,6278.05,2384.69C6590.82,2455.73,6903.59,2526.77,7222.61,2599.23C7202.56,2667.28,7182.5,2735.34,7162.45,2803.39C6851.75,2732.82,6548.33,2663.91,6244.91,2594.99C5920.23,2563.38,5595.55,2531.77,5270.88,2500.15L5270.88,2500.15C5247.89,2500.15,5224.9,2500.15,5201.91,2500.15Z" id="Prime A West 2" fill="#ffffff" fill-opacity="1.0" stroke="#dddddd" stroke-opacity="1.0" stroke-width="9.0" /><path d="M3251.37,2801.13C3231.31,2733.08,3211.26,2665.02,3191.21,2596.97C3506.79,2525.29,3816.31,2454.99,4125.83,2384.69C4458.2,2352.33,4790.57,2319.97,5122.93,2287.6C5149.26,2287.6,5175.58,2287.6,5201.91,2287.6C5201.91,2358.45,5201.91,2429.3,5201.91,2500.15C5178.94,2500.15,5155.97,2500.15,5133.0,2500.15C4808.32,2531.77,4483.64,2563.38,4158.96,2594.99L4158.96,2594.99C3858.78,2663.17,3558.6,2731.35,3251.37,2801.13Z" id="Prime A West 1" fill="#ffffff" fill-opacity="1.0" stroke="#dddddd" stroke-opacity="1.0" stroke-width="9.0" /><path d="M7222.65,5080.89C7244.57,5075.93,7266.49,5070.98,7288.41,5066.03C7329.69,5011.77,7370.96,4957.51,7412.24,4903.25C7412.24,4548.83,7412.24,4194.42,7412.24,3840.0C7342.06,3840.0,7271.89,3840.0,7201.72,3840.0C7201.72,4182.57,7201.72,4525.15,7201.72,4867.72C7188.63,4870.67,7175.54,4873.62,7162.45,4876.56L7162.45,4876.56C7182.51,4944.67,7202.58,5012.78,7222.65,5080.89Z" id="Prime A North 2" fill="#ffffff" fill-opacity="1.0" stroke="#dddddd" stroke-opacity="1.0" stroke-width="9.0" /><path d="M7162.43,2803.44C7182.49,2735.38,7202.55,2667.31,7222.6,2599.24C7244.6,2604.22,7266.59,2609.2,7288.58,2614.17C7329.8,2668.36,7371.02,2722.54,7412.24,2776.73C7412.24,3131.15,7412.24,3485.57,7412.24,3839.99C7342.06,3839.99,7271.89,3839.99,7201.72,3839.99C7201.72,3497.46,7201.72,3154.92,7201.72,2812.38L7201.72,2812.38C7188.62,2809.4,7175.53,2806.42,7162.43,2803.44Z" id="Prime A North 1" fill="#ffffff" fill-opacity="1.0" stroke="#dddddd" stroke-opacity="1.0" stroke-width="9.0" /><path d="M7222.66,5080.89C7315.93,5397.44,7409.2,5713.98,7502.47,6030.52C7722.69,5741.03,7944.64,5449.27,8166.58,5157.52C8166.58,5027.61,8166.58,4897.71,8166.58,4767.8C7915.13,4767.8,7663.68,4767.8,7412.23,4767.8C7412.23,4812.95,7412.23,4858.1,7412.23,4903.26C7370.96,4957.52,7329.68,5011.78,7288.4,5066.04L7288.4,5066.04C7266.49,5070.99,7244.57,5075.94,7222.66,5080.89Z" id="Prime B North 4" fill="#ffffff" fill-opacity="1.0" stroke="#dddddd" stroke-opacity="1.0" stroke-width="9.0" /><path d="M7412.23,2912.16C7663.68,2912.16,7915.13,2912.16,8166.58,2912.16C8166.58,2782.24,8166.58,2652.33,8166.58,2522.41C7944.64,2230.66,7722.7,1938.91,7502.48,1649.41C7409.18,1966.02,7315.89,2282.64,7222.6,2599.25C7244.59,2604.23,7266.58,2609.2,7288.58,2614.18C7329.8,2668.36,7371.02,2722.55,7412.23,2776.73L7412.23,2776.73C7412.23,2821.88,7412.23,2867.02,7412.23,2912.16Z" id="Prime B North 1" fill="#ffffff" fill-opacity="1.0" stroke="#dddddd" stroke-opacity="1.0" stroke-width="9.0" /><path d="M8166.55,2912.18C8166.55,3221.45,8166.55,3530.71,8166.55,3839.98C7915.11,3839.98,7663.68,3839.98,7412.24,3839.98C7412.24,3530.71,7412.24,3221.45,7412.24,2912.18L7412.24,2912.18C7663.68,2912.18,7915.11,2912.18,8166.55,2912.18Z" id="Prime B North 2" fill="#ffffff" fill-opacity="1.0" stroke="#dddddd" stroke-opacity="1.0" stroke-width="9.0" /><path d="M8166.55,3839.98C8166.55,4149.25,8166.55,4458.53,8166.55,4767.8C7915.11,4767.8,7663.68,4767.8,7412.24,4767.8C7412.24,4458.53,7412.24,4149.25,7412.24,3839.98L7412.24,3839.98C7663.68,3839.98,7915.11,3839.98,8166.55,3839.98Z" id="Prime B North 3" fill="#ffffff" fill-opacity="1.0" stroke="#dddddd" stroke-opacity="1.0" stroke-width="9.0" /><path d="M2675.26,4829.27C2675.26,4908.52,2675.26,4987.7,2675.26,5066.87L2675.26,5066.87L3037.35,5604.46L2993.15,5755.04L2552.65,5104.48C2552.65,5012.77,2552.65,4921.05,2552.65,4829.27L2552.65,4829.27C2593.52,4829.27,2634.39,4829.27,2675.26,4829.27ZM2077.84,4829.11C2077.84,4169.71,2077.84,3510.3,2077.84,2850.89L2077.84,2850.89L2301.97,2850.71C2301.97,3510.18,2301.97,4169.65,2301.97,4829.12L2301.97,4829.12C2227.26,4829.11,2152.55,4829.11,2077.84,4829.11ZM2552.65,2850.61L2552.65,2575.5L2993.09,1925.32L3037.6,2078.23L2675.26,2613.12L2675.26,2850.44L2552.65,2850.61Z" id="INACTIVE" fill="#cacaca" fill-opacity="1.0" /><path d="M2914.96,3045.52C2900.38,3045.52,2885.8,3045.52,2871.21,3045.52C2871.21,3030.93,2871.21,3016.35,2871.21,3001.77C2885.8,3001.77,2900.38,3001.77,2914.96,3001.77L2914.96,3001.77C2914.96,3016.35,2914.96,3030.93,2914.96,3045.52Z" id="Column" fill="#ffffff" fill-opacity="1.0" stroke="#cacaca" stroke-opacity="1.0" stroke-width="18.0" /><path d="M2914.96,4634.48C2900.38,4634.48,2885.8,4634.48,2871.21,4634.48C2871.21,4649.07,2871.21,4663.65,2871.21,4678.23C2885.8,4678.23,2900.38,4678.23,2914.96,4678.23L2914.96,4678.23C2914.96,4663.65,2914.96,4649.07,2914.96,4634.48Z" id="Column" fill="#ffffff" fill-opacity="1.0" stroke="#cacaca" stroke-opacity="1.0" stroke-width="18.0" /><text text-align="left" id="Text003" fill="#afafaf" fill-opacity="1.0" font-family="'TM Sans', arial, 'lucida console', sans-serif" font-weight="bold" font-size="158.375" transform="rotate(-90.0,1881.1,4105.27)" x="1881.1" y="4246.59"><tspan text-anchor="start" x="1881.1">SOUTH</tspan></text><text text-align="left" id="Text002" fill="#afafaf" fill-opacity="1.0" font-family="'TM Sans', arial, 'lucida console', sans-serif" font-weight="bold" font-size="158.375" transform="rotate(90.0,8363.28,3573.21)" x="8363.28" y="3714.52"><tspan text-anchor="start" x="8363.28">NORTH</tspan></text><text text-align="left" id="Text004" fill="#afafaf" fill-opacity="1.0" font-family="'TM Sans', arial, 'lucida console', sans-serif" font-weight="bold" font-size="158.375" x="5000.55" y="7340.99"><tspan text-anchor="start" x="5000.55">EAST</tspan></text><text text-align="left" id="Text001" fill="#afafaf" fill-opacity="1.0" font-family="'TM Sans', arial, 'lucida console', sans-serif" font-weight="bold" font-size="158.375" x="4977.51" y="451.226"><tspan text-anchor="start" x="4977.51">WEST</tspan></text><path d="M3128.85,3726.65C2991.07,3726.65,2899.13,3726.65,2761.35,3726.65C2761.35,3858.46,2761.35,3828.0,2761.35,3959.81C2899.12,3959.81,2991.07,3959.81,3128.85,3959.81L3128.85,3959.81C3128.85,3828.0,3128.85,3858.46,3128.85,3726.65Z" id="VOM" fill="#cacaca" fill-opacity="1.0" /><path d="M2961.51,4632.61C2950.57,4632.61,2939.63,4632.61,2928.69,4632.61C2928.69,4643.55,2928.69,4654.49,2928.69,4665.43C2939.63,4665.43,2950.57,4665.43,2961.51,4665.43L2961.51,4665.43C2961.51,4654.49,2961.51,4643.55,2961.51,4632.61Z" id="COLUMN001" fill="#ffffff" fill-opacity="1.0" stroke="#cacaca" stroke-opacity="1.0" stroke-width="18.0" /><path d="M2961.51,3023.45C2950.57,3023.45,2939.63,3023.45,2928.69,3023.45C2928.69,3034.39,2928.69,3045.32,2928.69,3056.26C2939.63,3056.26,2950.57,3056.26,2961.51,3056.26L2961.51,3056.26C2961.51,3045.32,2961.51,3034.39,2961.51,3023.45Z" id="COLUMN" fill="#ffffff" fill-opacity="1.0" stroke="#cacaca" stroke-opacity="1.0" stroke-width="18.0" /><path d="M7082.21,1525.12C7142.97,1273.68,7203.74,1022.24,7264.5,770.805C7032.43,718.097,6798.48,664.96,6564.53,611.824C6165.69,572.989,5766.85,534.154,5368.0,495.319C5257.3,495.319,5146.59,495.319,5035.88,495.319C4637.04,534.154,4238.2,572.989,3839.36,611.824C3605.39,664.963,3371.43,718.102,3139.35,770.814C3200.11,1022.25,3260.87,1273.69,3321.64,1525.13C3201.23,1552.48,3023.61,1592.77,2903.38,1620.08C2999.33,1945.71,3095.28,2271.34,3191.23,2596.97C3506.8,2525.3,3816.31,2455.0,4125.83,2384.7C4134.21,2383.89,5020.83,2297.53,5122.92,2287.59C5175.59,2287.59,5228.26,2287.59,5280.94,2287.59C5374.44,2296.7,5467.94,2305.8,5561.44,2314.91C5780.37,2336.22,5999.29,2357.55,6218.22,2378.87C6238.17,2380.81,6258.1,2382.76,6278.05,2384.7C6590.82,2455.74,6903.6,2526.78,7222.63,2599.24C7315.92,2282.63,7409.21,1966.02,7502.5,1649.41C7493.63,1637.77,7484.77,1626.13,7475.91,1614.48L7475.91,1614.48C7351.55,1586.24,7206.57,1553.37,7082.21,1525.12Z" id="GA-GSW" fill="#ffffff" fill-opacity="1.0" stroke="#dddddd" stroke-opacity="1.0" stroke-width="9.0" /><path d="M4125.82,5295.28C3816.31,5224.98,3506.8,5154.68,3191.23,5083.01C3095.28,5408.62,2999.34,5734.24,2903.39,6059.86C3037.32,6090.28,3187.5,6124.4,3321.64,6154.87C3260.87,6406.31,3200.11,6657.75,3139.35,6909.19C3371.43,6961.9,3605.39,7015.04,3839.36,7068.18C4238.2,7107.01,4637.04,7145.85,5035.88,7184.68C5146.59,7184.68,5257.3,7184.68,5368.0,7184.68C5766.85,7145.85,6165.69,7107.01,6564.53,7068.18C6798.48,7015.04,7032.43,6961.9,7264.5,6909.2C7203.74,6657.76,7142.97,6406.32,7082.21,6154.88C7206.29,6126.7,7351.72,6093.66,7475.79,6065.48C7484.69,6053.8,7493.58,6042.13,7502.47,6030.45C7409.19,5713.88,7315.91,5397.31,7222.63,5080.74C6903.6,5153.2,6590.83,5224.24,6278.05,5295.28C6258.1,5297.22,6238.15,5299.16,6218.21,5301.1C5999.28,5322.41,5780.35,5343.72,5561.42,5365.03C5483.93,5372.57,5406.45,5380.1,5328.96,5387.64C5328.96,5501.69,5328.96,5615.74,5328.96,5729.78C5302.77,5729.78,5075.05,5729.78,5048.86,5729.78C5048.86,5614.89,5048.86,5500.0,5048.86,5385.1L5048.86,5385.1C4971.45,5377.56,4134.21,5296.1,4125.82,5295.28Z" id="GA-GSE" fill="#ffffff" fill-opacity="1.0" stroke="#dddddd" stroke-opacity="1.0" stroke-width="9.0" /><g id="ACCESSIBLE001"><path d="M8096.62,3845.93C8084.24,3845.93,8074.16,3856.01,8074.16,3868.39C8074.16,3880.78,8084.24,3890.85,8096.62,3890.85C8109.01,3890.85,8119.08,3880.78,8119.08,3868.39L8119.08,3868.39C8119.08,3856.01,8109.01,3845.93,8096.62,3845.93Z" id="COLOR001" fill="#727272" fill-opacity="1.0" /><path d="M8096.62,3888.18C8085.71,3888.18,8076.83,3879.3,8076.83,3868.39C8076.83,3857.48,8085.71,3848.6,8096.62,3848.6C8107.53,3848.6,8116.41,3857.48,8116.41,3868.39L8116.41,3868.39C8116.41,3879.3,8107.53,3888.18,8096.62,3888.18ZM8109.55,3876.78L8106.93,3877.77L8103.07,3867.48L8094.01,3867.02L8094.0,3865.45L8100.54,3865.44L8100.54,3862.83C8097.27,3862.83,8094.0,3862.84,8094.0,3862.84C8094.0,3860.59,8094.0,3858.33,8094.0,3858.33C8095.28,3857.99,8096.22,3856.83,8096.22,3855.43C8096.22,3853.78,8094.88,3852.43,8093.22,3852.43C8091.55,3852.43,8090.2,3853.78,8090.2,3855.43C8090.2,3856.35,8090.62,3857.15,8091.25,3857.7C8091.25,3857.7,8091.25,3863.6,8091.25,3869.49C8094.56,3869.65,8097.87,3869.81,8101.19,3869.97L8101.19,3869.97L8105.23,3880.66L8110.29,3878.76L8109.55,3876.78ZM8090.14,3865.29C8090.13,3864.03,8090.12,3862.77,8090.12,3862.77C8086.24,3864.28,8083.5,3868.03,8083.5,3872.44C8083.5,3878.16,8088.15,3882.8,8093.88,3882.8C8097.99,3882.8,8101.29,3880.73,8102.97,3877.26C8102.97,3877.26,8101.75,3874.41,8101.75,3874.41C8100.87,3877.96,8097.66,3880.59,8093.86,3880.59C8089.36,3880.59,8085.72,3876.94,8085.72,3872.46L8085.72,3872.46C8085.72,3869.23,8087.41,3866.6,8090.14,3865.29Z" id="WHITE001" fill="#ffffff" fill-opacity="1.0" /></g><g id="ACCESSIBLE"><path d="M7646.21,1927.94C7633.83,1927.94,7623.75,1938.02,7623.75,1950.4C7623.75,1962.79,7633.83,1972.87,7646.21,1972.87C7658.6,1972.87,7668.68,1962.79,7668.68,1950.4L7668.68,1950.4C7668.68,1938.02,7658.6,1927.94,7646.21,1927.94Z" id="COLOR" fill="#727272" fill-opacity="1.0" /><path d="M7646.21,1970.19C7635.3,1970.19,7626.43,1961.32,7626.43,1950.4C7626.43,1939.49,7635.3,1930.62,7646.21,1930.62C7657.13,1930.62,7666.0,1939.49,7666.0,1950.4L7666.0,1950.4C7666.0,1961.32,7657.13,1970.19,7646.21,1970.19ZM7659.15,1958.79L7656.53,1959.78L7652.67,1949.49L7643.6,1949.03L7643.6,1947.46L7650.14,1947.45L7650.14,1944.84C7646.87,1944.85,7643.6,1944.85,7643.6,1944.85C7643.6,1942.6,7643.6,1940.35,7643.6,1940.35C7644.88,1940.0,7645.82,1938.84,7645.82,1937.45C7645.82,1935.79,7644.47,1934.44,7642.81,1934.44C7641.15,1934.44,7639.8,1935.79,7639.8,1937.45C7639.8,1938.36,7640.21,1939.17,7640.85,1939.72C7640.85,1939.72,7640.85,1945.61,7640.85,1951.5C7644.16,1951.66,7647.47,1951.83,7650.78,1951.99L7650.78,1951.99L7654.83,1962.68L7659.89,1960.77L7659.15,1958.79ZM7639.73,1947.3C7639.72,1946.04,7639.72,1944.78,7639.72,1944.78C7635.84,1946.29,7633.1,1950.05,7633.1,1954.45C7633.1,1960.17,7637.74,1964.82,7643.47,1964.82C7647.58,1964.82,7650.88,1962.74,7652.56,1959.28C7652.56,1959.28,7651.35,1956.42,7651.35,1956.42C7650.47,1959.98,7647.26,1962.6,7643.45,1962.6C7638.96,1962.6,7635.31,1958.96,7635.31,1954.47L7635.31,1954.47C7635.31,1951.24,7637.01,1948.61,7639.73,1947.3Z" id="WHITE" fill="#ffffff" fill-opacity="1.0" /></g><path d="M3037.5,5604.45L2675.44,5066.79L2675.44,4829.11L2302.1,4829.11L2302.1,2850.53L2675.44,2850.7L2675.44,2613.17L3037.76,2078.27L3251.25,2801.29L3222.36,2807.76L3222.37,4872.29L3251.21,4878.84L3037.5,5604.45Z" id="VIP 12" fill="#cacaca" fill-opacity="1.0" /></svg>