<svg xmlns="http://www.w3.org/2000/svg" version="1.1" id="Layer_1" x="0px" y="0px" viewBox="0 -32 966.8 1036.9" xml:space="preserve">
  <style>
    [data-category="category-1"],
    [data-category="category-2"],
    [data-category="category-3"] {
      cursor: pointer;
    }

    [data-category="category-1"] path,
    [data-category="category-1"] rect,
    [data-category="category-1"] circle,
    [data-category="category-1"] polygon {
      fill: #800D2F;
      transition: filter 0.2s ease;
    }

    [data-category="category-2"] path,
    [data-category="category-2"] rect,
    [data-category="category-2"] circle,
    [data-category="category-2"] polygon {
      fill: #C73866;
      transition: filter 0.2s ease;
    }

    [data-category="category-3"] path,
    [data-category="category-3"] rect,
    [data-category="category-3"] circle,
    [data-category="category-3"] polygon {
      fill: #FFB5A7;
      transition: filter 0.2s ease;
    }

    [data-category="category-3"] path,
    [data-category="category-3"] rect,
    [data-category="category-3"] circle,
    [data-category="category-3"] polygon {
      fill: #FFB5A7;
      transition: filter 0.2s ease;
    }

    [data-category].sold-out path,
    [data-category].sold-out rect,
    [data-category].sold-out circle,
    [data-category].sold-out polygon {
      fill: #CFCFCF;
      cursor: not-allowed;
    }

    [data-category="category-1"]:hover:not(.sold-out) path,
    [data-category="category-1"]:hover:not(.sold-out) rect,
    [data-category="category-1"]:hover:not(.sold-out) circle,
    [data-category="category-1"]:hover:not(.sold-out) polygon,
    [data-category="category-2"]:hover:not(.sold-out) path,
    [data-category="category-2"]:hover:not(.sold-out) rect,
    [data-category="category-2"]:hover:not(.sold-out) circle,
    [data-category="category-2"]:hover:not(.sold-out) polygon,
    [data-category="category-3"]:hover:not(.sold-out) path,
    [data-category="category-3"]:hover:not(.sold-out) rect,
    [data-category="category-3"]:hover:not(.sold-out) circle,
    [data-category="category-3"]:hover:not(.sold-out) polygon {
      filter: brightness(1.35);
      cursor: pointer;
      opacity: 0.95;
    }

    /* Active category (highlighted from card hover) */
    [data-category].active:not(.sold-out) path,
    [data-category].active:not(.sold-out) rect,
    [data-category].active:not(.sold-out) circle,
    [data-category].active:not(.sold-out) polygon {
      filter: brightness(1.35);
      opacity: 0.95;
    }

    [data-category] text {
      pointer-events: none;
      fill: white;
    }

    /* Футбольное поле - из исходной схемы Map.svg */
    .st0 {
      fill: #5C9E4F;
    }

    .st1 {
      fill: #538D43;
    }

    .st2 {
      fill: none;
      stroke: #FFFFFF;
      stroke-miterlimit: 10;
    }
  </style>
  <g data-category="field">
    <g data-additional-flag="false" data-section="field_" data-category-aliases="field">
      <rect x="278.5" y="364.7" class="st0" width="409" height="245.2" />
      <rect x="478.2" y="376.4" class="st1" width="18.2" height="221.4" />
      <rect x="515.4" y="376.4" class="st1" width="18.2" height="221.4" />
      <rect x="552" y="376.4" class="st1" width="18.2" height="221.4" />
      <rect x="589.4" y="376.4" class="st1" width="18.2" height="221.4" />
      <rect x="623.7" y="376.4" class="st1" width="16.4" height="221.3" />
      <rect x="656.1" y="376.4" class="st1" width="16.4" height="221.3" />
      <rect x="330.8" y="376.4" class="st1" width="18.5" height="221.3" />
      <rect x="294.4" y="376.4" class="st1" width="18.5" height="221.3" />
      <rect x="441.7" y="376.4" class="st1" width="18.5" height="221.4" />
      <rect x="367.8" y="376.4" class="st1" width="18.5" height="221.3" />
      <rect x="404.8" y="376.4" class="st1" width="18.5" height="221" />
      <rect x="294.9" y="376.4" class="st2" width="378" height="221.4" />
      <g>
        <rect x="294.9" y="415.1" class="st2" width="47.5" height="144.1" />
        <rect x="294.9" y="453.6" class="st2" width="17.2" height="67.1" />
        <path class="st2" d="M342.1,513.3c2.1-2.4,9.6-12.1,9.4-26.5c-0.1-14-7.4-23.3-9.6-25.9" />
        <rect x="287.1" y="474.2" class="st2" width="7.6" height="22.6" />
      </g>
      <g>
        <rect x="625.4" y="415.1" class="st2" width="47.5" height="144.1" />
        <rect x="655.5" y="453.6" class="st2" width="17.2" height="67.1" />
        <path class="st2" d="M625.4,461c-2.1,2.6-9.4,11.9-9.6,25.9c-0.2,14.3,7.4,23.9,9.4,26.5" />
        <rect x="672.7" y="474.2" class="st2" width="7.6" height="22.6" />
      </g>
      <g>
        <path class="st2" d="M301.1,597.8c0,0,0.2-7-6.5-8.6" />
        <path class="st2" d="M294.9,384.9c6.7-1.5,6.5-8.6,6.5-8.6" />
      </g>
      <g>
        <path class="st2" d="M672.7,589.2c-6.7,1.5-6.5,8.6-6.5,8.6" />
        <path class="st2" d="M666.3,376.4c0,0-0.2,7,6.5,8.6" />
      </g>
      <circle id="white_circle" class="st2" cx="483" cy="487.2" r="33.6" data-seat="field" />
      <line class="st2" x1="483.2" y1="376.4" x2="483.2" y2="597.9" />
    </g>
  </g>
  <g data-category="category-1">
    <g data-additional-flag="false" data-section="category-1_550" data-category-aliases="category 1">
      <path d="M207.1,239.5c-8.9-12.8-17.8-25.5-26.7-38.3c7.9-6,18.3-12.7,31.3-18.7c10.7-4.9,20.7-8.1,29.1-10.2 c4.1,14.4,8.3,28.8,12.4,43.2c-6,2-12.6,4.6-19.5,7.9C223,228.5,214.2,234.2,207.1,239.5z" data-seat="category-1" />
      <text transform="matrix(1 0 0 1 209.3411 205.9408)">550</text>
    </g>
    <g data-additional-flag="false" data-section="category-1_549" data-category-aliases="category 1">
      <path d="M258.3,214.7c-4.1-14.7-8.1-29.3-12.2-44c4.6-1.1,10.8-2.4,18.2-3.2c6-0.7,10.7-0.9,14.3-1 c5.1-0.2,11.7-0.3,19.4,0.1c0.1,15.2,0.2,30.5,0.2,45.7c-7.1,0.1-14.5,0.3-22.3,0.8C269.9,213.5,263.9,214.1,258.3,214.7z" data-seat="category-1" />
      <text transform="matrix(1 0 0 1 265.8636 192.331)">549</text>
    </g>
    <g data-additional-flag="false" data-section="category-1_548" data-category-aliases="category 1">
      <rect x="302.8" y="166.8" width="42.1" height="45.5" data-seat="category-1" />
      <text transform="matrix(1 0 0 1 314.8636 192.331)">548</text>
    </g>
    <g data-additional-flag="false" data-section="category-1_547" data-category-aliases="category 1">
      <rect x="348.1" y="166.8" width="51" height="45.5" data-seat="category-1" />
      <text transform="matrix(1 0 0 1 363.8636 192.331)">547</text>
    </g>
    <g data-additional-flag="false" data-section="category-1_546" data-category-aliases="category 1">
      <rect x="402.6" y="166.8" width="50.2" height="45.5" data-seat="category-1" />
      <text transform="matrix(1 0 0 1 418.7977 192.331)">546</text>
    </g>
    <g data-additional-flag="false" data-section="category-1_545" data-category-aliases="category 1">
      <rect x="457.2" y="166.8" width="52.1" height="45.5" data-seat="category-1" />
      <text transform="matrix(1 0 0 1 473.7977 192.331)">545</text>
    </g>
    <g data-additional-flag="false" data-section="category-1_544" data-category-aliases="category 1">
      <rect x="513.6" y="166.8" width="49.4" height="45.5" data-seat="category-1" />
      <text transform="matrix(1 0 0 1 527.7977 192.331)">544</text>
    </g>
    <g data-additional-flag="false" data-section="category-1_543" data-category-aliases="category 1">
      <rect x="567.4" y="166.8" width="50.1" height="45.5" data-seat="category-1" />
      <text transform="matrix(1 0 0 1 582.7977 192.331)">543</text>
    </g>
    <g data-additional-flag="false" data-section="category-1_542" data-category-aliases="category 1">
      <rect x="621.6" y="166.8" width="41.8" height="45.5" data-seat="category-1" />
      <text transform="matrix(1 0 0 1 633.7977 192.331)">542</text>
    </g>
    <g data-additional-flag="false" data-section="category-1_541" data-category-aliases="category 1">
      <path d="M707.2,216c4-14.8,8.1-29.5,12.1-44.3c-5.7-1.7-12.4-3.2-19.9-4.1c-4.7-0.6-9.1-0.8-13.1-0.9 c-6.3,0-12.6,0-19,0c0.1,15.2,0.2,30.5,0.3,45.7c6-0.2,12.8,0,20.2,0.7C695,213.8,701.4,214.8,707.2,216z" data-seat="category-1" />
      <text transform="matrix(1 0 0 1 681.7977 192.331)">541</text>
    </g>
    <g data-additional-flag="false" data-section="category-1_539" data-category-aliases="category 1">
      <path d="M759.3,240.5c8.9-12.8,17.8-25.5,26.7-38.3c-7.9-6-18.3-12.7-31.3-18.7c-10.7-4.9-20.7-8.1-29.1-10.2 c-4.2,14.6-8.4,29.2-12.6,43.9c5.9,1.7,12.6,4,19.6,7.2C743.7,229.4,752.6,235.3,759.3,240.5z" data-seat="category-1" />
      <text transform="matrix(1 0 0 1 737.7977 209.331)">539</text>
    </g>
    <g data-additional-flag="false" data-section="category-1_112" data-category-aliases="category 1">
      <path d="M700,695.8c4.1,18.4,8.2,36.9,12.3,55.3c7.6-2.1,16.5-5.2,26.2-10c7.7-3.8,14.3-7.9,19.7-11.8 c-11.1-15.4-22.1-30.7-33.2-46.1c-3.2,2.3-7,4.8-11.6,7.1C708.5,692.7,703.9,694.5,700,695.8z" data-seat="category-1" />
      <text transform="matrix(1 0 0 1 719.1644 721.7029)">112</text>
    </g>
    <g data-additional-flag="false" data-section="category-1_124" data-category-aliases="category 1">
      <path d="M686.4,340.5c4.1-5.1,8.2-10.2,12.3-15.3c-1.2-1.2-2.6-2.5-4.3-3.8c-1-0.8-2-1.6-3-2.2 c5-11.6,10.1-23.2,15.1-34.8c-2.3-0.9-4.6-1.7-7-2.5c-1.9-0.6-3.8-1.3-5.6-1.8c4.1-19.6,8.2-39.3,12.3-58.9 c-6.9-1.2-14.6-2.2-23-2.7c-5.4-0.3-10.5-0.4-15.3-0.4c-0.2,39.3-0.4,78.6-0.6,117.9c2-0.1,4.3,0,6.9,0.4 C679.4,337.1,683.5,338.9,686.4,340.5z" data-seat="category-1" />
      <text transform="matrix(1 0 0 1 675.9741 301.8207)">124</text>
    </g>
    <g data-additional-flag="false" data-section="category-1_123" data-category-aliases="category 1">
      <path d="M723.6,289.7c10.8-15.1,21.6-30.1,32.4-45.2c-3.1-2.2-6.6-4.6-10.4-6.9c-5.8-3.5-10.5-5.8-12.7-6.9 c-5.4-2.6-12.6-5.7-21.4-8.3c-4.6,18.4-9.2,36.7-13.7,55.1c4,1.3,8.3,3,12.9,5.2C715.6,284.9,719.9,287.4,723.6,289.7z" data-seat="category-1" />
      <text transform="matrix(1 0 0 1 716.3655 257.2322)">123</text>
    </g>
    <g data-additional-flag="false" data-section="category-1_210" data-category-aliases="category 1">
      <rect x="621.6" y="217.8" width="41.8" height="57.9" data-seat="category-1" />
      <text transform="matrix(1 0 0 1 634.4476 250.1121)">210</text>
    </g>
    <g data-additional-flag="false" data-section="category-1_125" data-category-aliases="category 1">
      <rect x="621.6" y="280.8" width="41.8" height="54.5" data-seat="category-1" />
      <text transform="matrix(1 0 0 1 634.4476 310.1121)">125</text>
    </g>
    <g data-additional-flag="false" data-section="category-1_211" data-category-aliases="category 1">
      <rect x="567.4" y="217.8" width="50.1" height="57.9" data-seat="category-1" />
      <text transform="matrix(1 0 0 1 586.4476 250.1121)">211</text>
    </g>
    <g data-additional-flag="false" data-section="category-1_126" data-category-aliases="category 1">
      <rect x="567.4" y="280.8" width="50.1" height="54.5" data-seat="category-1" />
      <text transform="matrix(1 0 0 1 584.4476 310.1121)">126</text>
    </g>
    <g data-additional-flag="false" data-section="category-1_212" data-category-aliases="category 1">
      <rect x="513.6" y="217.8" width="49.4" height="57.9" data-seat="category-1" />
      <text transform="matrix(1 0 0 1 530.4476 250.1121)">212</text>
    </g>
    <g data-additional-flag="false" data-section="category-1_127" data-category-aliases="category 1">
      <rect x="513.6" y="280.8" width="49.4" height="54.5" data-seat="category-1" />
      <text transform="matrix(1 0 0 1 531.4476 310.1121)">127</text>
    </g>
    <g data-additional-flag="false" data-section="category-1_213" data-category-aliases="category 1">
      <rect x="457.2" y="217.8" width="52.1" height="57.9" data-seat="category-1" />
      <text transform="matrix(1 0 0 1 475.4476 250.1121)">213</text>
    </g>
    <g data-additional-flag="false" data-section="category-1_128" data-category-aliases="category 1">
      <rect x="457.2" y="280.8" width="52.1" height="54.5" data-seat="category-1" />
      <text transform="matrix(1 0 0 1 474.4476 310.1121)">128</text>
    </g>
    <g data-additional-flag="false" data-section="category-1_214" data-category-aliases="category 1">
      <rect x="402.6" y="217.8" width="50.2" height="57.9" data-seat="category-1" />
      <text transform="matrix(1 0 0 1 420.4476 250.1121)">214</text>
    </g>
    <g data-additional-flag="false" data-section="category-1_129" data-category-aliases="category 1">
      <rect x="402.6" y="280.8" width="50.2" height="54.5" data-seat="category-1" />
      <text transform="matrix(1 0 0 1 420.4476 310.1121)">129</text>
    </g>
    <g data-additional-flag="false" data-section="category-1_215" data-category-aliases="category 1">
      <rect x="348.1" y="217.8" width="51" height="57.9" data-seat="category-1" />
      <text transform="matrix(1 0 0 1 365.4476 250.1121)">215</text>
    </g>
    <g data-additional-flag="false" data-section="category-1_130" data-category-aliases="category 1">
      <rect x="348.1" y="280.8" width="51" height="54.5" data-seat="category-1" />
      <text transform="matrix(1 0 0 1 365.4476 310.1121)">130</text>
    </g>
    <g data-additional-flag="false" data-section="category-1_216" data-category-aliases="category 1">
      <rect x="302.8" y="217.8" width="42.1" height="57.9" data-seat="category-1" />
      <text transform="matrix(1 0 0 1 315.4476 250.1121)">216</text>
    </g>
    <g data-additional-flag="false" data-section="category-1_131" data-category-aliases="category 1">
      <rect x="302.8" y="280.8" width="42.1" height="54.5" data-seat="category-1" />
      <text transform="matrix(1 0 0 1 317.4476 310.1121)">131</text>
    </g>
    <g data-additional-flag="false" data-section="category-1_133" data-category-aliases="category 1">
      <path d="M242.8,288.8c-11.2-15.3-22.3-30.7-33.5-46c5.7-4.4,13.3-9.6,22.9-14c8.6-4,16.5-6.5,23-8.1 c4.2,18.8,8.4,37.6,12.6,56.4c-3.2,0.9-6.7,2.2-10.4,3.8C251.7,283.3,246.8,286.1,242.8,288.8z" data-seat="category-1" />
      <text transform="matrix(1 0 0 1 234.8554 257.232)">133</text>
    </g>
    <g data-additional-flag="false" data-section="category-1_504" data-category-aliases="category 1">
      <path d="M206.1,731.4c-8.9,12.8-17.8,25.5-26.7,38.3c7.9,6,18.3,12.7,31.3,18.7c10.7,4.9,20.7,8.1,29.1,10.2 c4.1-14.4,8.3-28.8,12.4-43.2c-6-2-12.6-4.6-19.5-7.9C222,742.3,213.2,736.6,206.1,731.4z" data-seat="category-1" />
      <text transform="matrix(1 0 0 1 207.3408 769.8367)">504</text>
    </g>
    <g data-additional-flag="false" data-section="category-1_506" data-category-aliases="category 1">
      <path d="M257.3,756.8c-4.1,14.5-8.1,28.9-12.2,43.4c5.7,1.7,12.4,3.2,19.9,4.1c4.7,0.6,9.1,0.8,13.1,0.9 c6.3,0,12.6,0,19,0c0-14.8,0-29.5,0-44.3c-6,0.1-12.7-0.1-20-0.8C269.7,759.3,263.1,758.1,257.3,756.8z" data-seat="category-1" />
      <text transform="matrix(1 0 0 1 264.8638 786.1037)">506</text>
    </g>
    <g data-additional-flag="false" data-section="category-1_102" data-category-aliases="category 1">
      <path d="M241.5,682.3c-11.1,15.3-22.1,30.5-33.2,45.8c5.7,4.4,13.3,9.6,22.9,14c8.6,4,16.5,6.5,23,8.1 c4-18.5,8-37,12-55.5c-3.6-1.2-7.7-2.8-12-4.9C249.2,687.4,245,684.8,241.5,682.3z" data-seat="category-1" />
      <text transform="matrix(1 0 0 1 233.9437 718.4228)">102</text>
    </g>
    <g data-additional-flag="false" data-section="category-1_201" data-category-aliases="category 1">
      <path d="M270.1,695.7c-3.9,18.6-7.7,37.2-11.6,55.7c6.4,1.9,14.2,3.7,23,4.6c5.9,0.6,11.3,0.8,16.2,0.7 c0-19.2,0-38.4,0-57.6c-4,0-8.6-0.2-13.6-0.8C278.8,697.8,274.1,696.8,270.1,695.7z" data-seat="category-1" />
      <text transform="matrix(1 0 0 1 271.9437 731.4228)">201</text>
    </g>
    <g data-additional-flag="false" data-section="category-1_103" data-category-aliases="category 1">
      <path d="M278,631.4c-4.1,5.1-8.2,10.2-12.3,15.3c1.2,1.2,2.6,2.5,4.3,3.8c1,0.8,2,1.6,3,2.2 c-4.9,11.5-9.7,23-14.6,34.5c4.5,1.6,9.7,3.2,15.6,4.4c8.8,1.8,16.7,2.4,23.2,2.5c0-19.4,0-38.8,0-58.1c-2,0.1-4.3,0-6.9-0.4 C285,634.8,280.8,632.9,278,631.4z" data-seat="category-1" />
      <text transform="matrix(1 0 0 1 274.9437 669.4228)">103</text>
    </g>
    <g data-additional-flag="false" data-section="category-1_104" data-category-aliases="category 1">
      <rect x="301.1" y="638.7" width="42.3" height="55.2" data-seat="category-1" />
      <text transform="matrix(1 0 0 1 313.9437 669.4228)">104</text>
    </g>
    <g data-additional-flag="false" data-section="category-1_202" data-category-aliases="category 1">
      <rect x="302.8" y="698.8" width="42.1" height="57.5" data-seat="category-1" />
      <text transform="matrix(1 0 0 1 314.9437 732.4228)">202</text>
    </g>
    <g data-additional-flag="false" data-section="category-1_507" data-category-aliases="category 1">
      <rect x="303.1" y="760.5" width="41.8" height="44.6" data-seat="category-1" />
      <text transform="matrix(1 0 0 1 314.9437 786.4228)">507</text>
    </g>
    <g data-additional-flag="false" data-section="category-1_604" data-category-aliases="category 1">
      <rect x="302.8" y="809.9" width="42.1" height="62.6" data-seat="category-1" />
      <text transform="matrix(1 0 0 1 314.9437 846.4228)">604</text>
    </g>
    <g data-additional-flag="false" data-section="category-1_603" data-category-aliases="category 1">
      <polygon points="265.7,808.9 262.7,860.9 297.6,860.9 297.6,808.9 " data-seat="category-1" />
      <text transform="matrix(1 0 0 1 271.5337 837.0112)">603</text>
    </g>
    <g data-additional-flag="false" data-section="category-1_602" data-category-aliases="category 1">
      <path d="M228.7,800.6c-10.7,23.8-21.4,47.6-32.2,71.4c3,2.3,6.1,4.6,9.6,6.9c3.2,2.2,6.4,4.2,9.4,6 c3.5-8.1,7-16.2,10.6-24.4c5.2,1.8,11,3.5,17.3,5c5.1,1.2,9.9,2.1,14.5,2.8c1.3-20,2.5-40,3.8-60.1c-5.7-0.7-12.1-1.7-19-3.5 C237.6,803.6,233,802.1,228.7,800.6z" data-seat="category-1" />
      <text transform="matrix(1 0 0 1 227.9685 839.3029)">602</text>
    </g>
    <g data-additional-flag="false" data-section="category-1_601" data-category-aliases="category 1">
      <path d="M208.7,793.6c-11.4,20.7-22.9,41.3-34.3,62c2.8,2.3,5.8,4.7,8.8,7c3.3,2.6,6.6,5.1,9.9,7.4 c10.3-23.5,20.7-47,31-70.5c-1.7-0.5-3.5-1.1-5.3-1.8C215.1,796.4,211.7,795,208.7,793.6z" data-seat="category-1" />
      <text transform="matrix(1 0 0 1 191.4027 833.9238)">601</text>
    </g>
    <g data-additional-flag="false" data-section="category-1_505" data-category-aliases="category 1">
      <path d="M192.4,784.1c-11.9,18.7-23.8,37.3-35.7,56c2,1.9,4.1,3.9,6.4,6c2.6,2.3,5.2,4.4,7.7,6.4 c11.4-20.2,22.8-40.5,34.2-60.8L192.4,784.1z" data-seat="category-1" />
      <text transform="matrix(1 0 0 1 174.3629 820.2769)">505</text>
    </g>
    <g data-additional-flag="false" data-section="category-1_703" data-category-aliases="category 1">
      <path d="M302.8,876.7h42.1v71.6c-6.5-1.9-13.2-4-20-6.3c-7.7-2.6-15.1-5.2-22.2-7.9C302.8,915,302.8,895.8,302.8,876.7 z" data-seat="category-1" />
      <text transform="matrix(1 0 0 1 313.9437 910.4228)">703</text>
    </g>
    <g data-additional-flag="false" data-section="category-1_105" data-category-aliases="category 1">
      <polygon points="346.9,638.7 346.9,693.9 397.8,693.9 397.8,643.1 386.2,643.1 386.2,638.7 " data-seat="category-1" />
      <text transform="matrix(1 0 0 1 361.9437 669.4228)">105</text>
    </g>
    <g data-additional-flag="false" data-section="category-1_203" data-category-aliases="category 1">
      <rect x="348.1" y="698.8" width="51" height="57.5" data-seat="category-1" />
      <text transform="matrix(1 0 0 1 362.9437 732.4228)">203</text>
    </g>
    <g data-additional-flag="false" data-section="category-1_508" data-category-aliases="category 1">
      <rect x="348.1" y="760.5" width="51" height="44.6" data-seat="category-1" />
      <text transform="matrix(1 0 0 1 362.9437 786.4228)">508</text>
    </g>
    <g data-additional-flag="false" data-section="category-1_605" data-category-aliases="category 1">
      <rect x="348.1" y="809.9" width="51" height="62.6" data-seat="category-1" />
      <text transform="matrix(1 0 0 1 362.9437 846.4228)">605</text>
    </g>
    <g data-additional-flag="false" data-section="category-1_704" data-category-aliases="category 1">
      <path d="M348.1,949.2v-72.5h51v84.8c-9.4-2.1-18.8-4.3-28.4-6.7C363,953,355.5,951.1,348.1,949.2z" data-seat="category-1" />
      <text transform="matrix(1 0 0 1 362.9437 920.4228)">704</text>
    </g>
    <g data-additional-flag="false" data-section="category-1_106" data-category-aliases="category 1">
      <rect x="402.1" y="638.7" width="51.4" height="55.2" data-seat="category-1" />
      <text transform="matrix(1 0 0 1 419.9437 669.4228)">106</text>
    </g>
    <g data-additional-flag="false" data-section="category-1_204" data-category-aliases="category 1">
      <rect x="402.6" y="698.8" width="50.2" height="57.5" data-seat="category-1" />
      <text transform="matrix(1 0 0 1 417.9437 732.4228)">204</text>
    </g>
    <g data-additional-flag="false" data-section="category-1_509" data-category-aliases="category 1">
      <rect x="402.6" y="760.5" width="50.2" height="44.6" data-seat="category-1" />
      <text transform="matrix(1 0 0 1 417.9437 786.4228)">509</text>
    </g>
    <g data-additional-flag="false" data-section="category-1_606" data-category-aliases="category 1">
      <rect x="402.6" y="809.9" width="50.2" height="62.6" data-seat="category-1" />
      <text transform="matrix(1 0 0 1 417.9437 846.4228)">606</text>
    </g>
    <g data-additional-flag="false" data-section="category-1_705" data-category-aliases="category 1">
      <path d="M402.6,962.1v-85.4h50.2v91.9c-7.3-0.6-14.8-1.3-22.5-2.3C420.6,965.1,411.3,963.7,402.6,962.1z" data-seat="category-1" />
      <text transform="matrix(1 0 0 1 417.9437 920.4228)">705</text>
    </g>
    <g data-additional-flag="false" data-section="category-1_107" data-category-aliases="category 1">
      <polygon points="457.1,638.7 457.1,693.9 509.1,693.9 509.1,638.7 492.9,638.7 492.9,664.2 475.8,664.2 475.8,638.7 " data-seat="category-1" />
      <text transform="matrix(1 0 0 1 475.5938 682.5826)">107</text>
    </g>
    <g data-additional-flag="false" data-section="category-1_205" data-category-aliases="category 1">
      <rect x="457.2" y="698.8" width="52.1" height="57.5" data-seat="category-1" />
      <text transform="matrix(1 0 0 1 472.9437 732.4228)">205</text>
    </g>
    <g data-additional-flag="false" data-section="category-1_510" data-category-aliases="category 1">
      <rect x="457.2" y="760.5" width="52.1" height="44.6" data-seat="category-1" />
      <text transform="matrix(1 0 0 1 472.9437 786.4228)">510</text>
    </g>
    <g data-additional-flag="false" data-section="category-1_607" data-category-aliases="category 1">
      <rect x="457.2" y="809.9" width="52.1" height="62.6" data-seat="category-1" />
      <text transform="matrix(1 0 0 1 472.9437 846.4228)">607</text>
    </g>
    <g data-additional-flag="false" data-section="category-1_706" data-category-aliases="category 1">
      <path d="M509.4,876.7h-52.1c0,30.7,0,61.5,0,92.2c7.9,0.5,16.4,0.8,25.4,0.8c9.5-0.1,18.4-0.5,26.7-1.2 C509.4,937.9,509.4,907.3,509.4,876.7z" data-seat="category-1" />
      <text transform="matrix(1 0 0 1 472.9437 920.4228)">706</text>
    </g>
    <g data-additional-flag="false" data-section="category-1_108" data-category-aliases="category 1">
      <rect x="513.1" y="638.7" width="50.6" height="54.3" data-seat="category-1" />
      <text transform="matrix(1 0 0 1 529.9437 669.4228)">108</text>
    </g>
    <g data-additional-flag="false" data-section="category-1_206" data-category-aliases="category 1">
      <rect x="513.6" y="698.8" width="49.4" height="57.5" data-seat="category-1" />
      <text transform="matrix(1 0 0 1 528.9437 732.4228)">206</text>
    </g>
    <g data-additional-flag="false" data-section="category-1_511" data-category-aliases="category 1">
      <rect x="513.6" y="760.5" width="49.4" height="44.6" data-seat="category-1" />
      <text transform="matrix(1 0 0 1 531.9437 786.4228)">511</text>
    </g>
    <g data-additional-flag="false" data-section="category-1_608" data-category-aliases="category 1">
      <rect x="513.6" y="809.9" width="49.4" height="62.6" data-seat="category-1" />
      <text transform="matrix(1 0 0 1 528.9437 846.4228)">608</text>
    </g>
    <g data-additional-flag="false" data-section="category-1_707" data-category-aliases="category 1">
      <path d="M563,962.1v-85.4h-49.5v91.9c7.2-0.6,14.6-1.3,22.2-2.3C545.2,965.1,554.3,963.7,563,962.1z" data-seat="category-1" />
      <text transform="matrix(1 0 0 1 528.9437 919.4228)">707</text>
    </g>
    <g data-additional-flag="false" data-section="category-1_109" data-category-aliases="category 1">
      <path d="M567.6,642.3V693h50.3v-55.8h-39.1c0,1.7,0,3.4,0,5.1C575,642.3,571.3,642.3,567.6,642.3z" data-seat="category-1" />
      <text transform="matrix(1 0 0 1 583.9437 669.4228)">109</text>
    </g>
    <g data-additional-flag="false" data-section="category-1_207" data-category-aliases="category 1">
      <rect x="567.4" y="698.8" width="50.1" height="57.5" data-seat="category-1" />
      <text transform="matrix(1 0 0 1 582.9437 732.4228)">207</text>
    </g>
    <g data-additional-flag="false" data-section="category-1_512" data-category-aliases="category 1">
      <rect x="567.4" y="760.5" width="50.1" height="44.6" data-seat="category-1" />
      <text transform="matrix(1 0 0 1 582.9437 786.4228)">512</text>
    </g>
    <g data-additional-flag="false" data-section="category-1_609" data-category-aliases="category 1">
      <rect x="567.4" y="809.9" width="50.1" height="62.6" data-seat="category-1" />
      <text transform="matrix(1 0 0 1 582.9437 846.4228)">609</text>
    </g>
    <g data-additional-flag="false" data-section="category-1_708" data-category-aliases="category 1">
      <path d="M617.5,949.2v-72.5h-50.1v84.8c9.2-2.1,18.5-4.3,27.9-6.7C602.8,953,610.2,951.1,617.5,949.2z" data-seat="category-1" />
      <text transform="matrix(1 0 0 1 582.9437 917.4228)">708</text>
    </g>
    <g data-additional-flag="false" data-section="category-1_110" data-category-aliases="category 1">
      <rect x="621.6" y="637.1" width="42.1" height="55.8" data-seat="category-1" />
      <text transform="matrix(1 0 0 1 635.9437 669.4228)">110</text>
    </g>
    <g data-additional-flag="false" data-section="category-1_208" data-category-aliases="category 1">
      <rect x="621.6" y="698.8" width="41.8" height="57.5" data-seat="category-1" />
      <text transform="matrix(1 0 0 1 633.9437 732.4228)">208</text>
    </g>
    <g data-additional-flag="false" data-section="category-1_513" data-category-aliases="category 1">
      <rect x="621.6" y="760.5" width="41.8" height="44.6" data-seat="category-1" />
      <text transform="matrix(1 0 0 1 633.9437 786.4228)">513</text>
    </g>
    <g data-additional-flag="false" data-section="category-1_610" data-category-aliases="category 1">
      <rect x="621.6" y="809.9" width="41.8" height="62.6" data-seat="category-1" />
      <text transform="matrix(1 0 0 1 633.9437 846.4228)">610</text>
    </g>
    <g data-additional-flag="false" data-section="category-1_709" data-category-aliases="category 1">
      <path d="M663.8,876.7h-42.1v71.6c6.5-1.9,13.2-4,20-6.3c7.7-2.6,15.1-5.2,22.2-7.9C663.8,915,663.8,895.8,663.8,876.7z " data-seat="category-1" />
      <text transform="matrix(1 0 0 1 631.9437 910.4228)">709</text>
    </g>
    <g data-additional-flag="false" data-section="category-1_111" data-category-aliases="category 1">
      <path d="M669,637.1v55.8c7.7,0.1,16.7-0.3,26.6-2.1c4.6-0.8,8.8-1.8,12.7-2.9c-4.9-11.2-9.8-22.5-14.8-33.7l7.1-6.5 l-12-15.4c-1.3,0.9-2.9,1.9-4.8,2.7c-2.6,1.1-5,1.7-6.8,2C674.3,637.1,671.7,637.1,669,637.1z" data-seat="category-1" />
      <text transform="matrix(1 0 0 1 677.9437 669.4228)">111</text>
    </g>
    <g data-additional-flag="false" data-section="category-1_209" data-category-aliases="category 1">
      <path d="M669.2,698.2v58.9c6.4,0,13.7-0.4,21.7-1.5c6.5-0.9,12.5-2.1,17.8-3.5c-3.9-18.6-7.7-37.1-11.6-55.7 c-4.1,0.7-8.6,1.3-13.5,1.6C678.3,698.4,673.5,698.4,669.2,698.2z" data-seat="category-1" />
      <text transform="matrix(1 0 0 1 676.9437 732.4228)">209</text>
    </g>
    <g data-additional-flag="false" data-section="category-1_514" data-category-aliases="category 1">
      <path d="M669.2,760.7c0,14.8,0,29.7,0,44.5c4.1,0,8.2,0,12.3,0c9.6,0,14.4-0.2,19.9-0.7c5-0.5,11.9-1.5,20.2-3.8 c-4-14.8-7.9-29.6-11.9-44.5c-3.4,0.7-7,1.4-10.8,2C688.2,760,678.2,760.6,669.2,760.7z" data-seat="category-1" />
      <text transform="matrix(1 0 0 1 682.9437 786.4228)">514</text>
    </g>
    <g data-additional-flag="false" data-section="category-1_514" data-category-aliases="category 1">
      <path d="M713.2,755.4c4.2,14.8,8.4,29.5,12.6,44.3c10-2.6,21.8-6.5,34.6-12.3c10.8-5,20-10.4,27.6-15.5 c-9.1-13-18.2-25.9-27.3-38.9c-2.1,1.7-5,3.9-8.7,6.2c-3,1.9-6.5,3.9-11.9,6.3C729.8,750.1,719.5,753.5,713.2,755.4z" data-seat="category-1" />
      <text transform="matrix(1 0 0 1 741.5208 770.2212)">514</text>
    </g>
    <g data-additional-flag="false" data-section="category-1_611" data-category-aliases="category 1">
      <polygon points="701.6,809.9 704.6,861.9 669.7,861.9 669.7,809.9 " data-seat="category-1" />
      <text transform="matrix(1 0 0 1 678.9437 838.4228)">611</text>
    </g>
    <g data-additional-flag="false" data-section="category-1_612" data-category-aliases="category 1">
      <path d="M738.6,802.5c10.8,24.2,21.6,48.5,32.4,72.7c-2.5,2.1-5.3,4.2-8.3,6.3c-3.5,2.5-7,4.6-10.2,6.5 c-3.7-8-7.4-16-11.1-24c-5.6,1.8-11.5,3.5-17.5,5.1c-4.5,1.2-8.9,2.4-13.3,3.4c-1.6-20.9-3.2-41.7-4.8-62.6 c5-0.8,10.2-1.7,15.6-2.9C727.5,805.6,733.2,804.1,738.6,802.5z" data-seat="category-1" />
      <text transform="matrix(1 0 0 1 722.9437 844.4228)">612</text>
    </g>
    <g data-additional-flag="false" data-section="category-1_613" data-category-aliases="category 1">
      <path d="M758,794.8c11.4,20.7,22.8,41.4,34.2,62c-2.5,2.3-5.1,4.6-7.8,6.9c-3.5,3-6.9,5.8-10.3,8.4 c-10.4-23.7-20.9-47.4-31.3-71.1c1.9-0.8,3.8-1.5,5.7-2.3C751.7,797.5,754.8,796.1,758,794.8z" data-seat="category-1" />
      <text transform="matrix(1 0 0 1 761.5078 837.8392)">613</text>
    </g>
    <g data-additional-flag="false" data-section="category-1_616" data-category-aliases="category 1">
      <path d="M774.1,786c11.9,18.2,23.8,36.3,35.7,54.5c-1.7,1.8-3.5,3.8-5.6,5.7c-2.8,2.7-5.6,5-8.2,7.1 c-11.5-19.9-22.9-39.9-34.4-59.8c2.4-1.3,4.9-2.7,7.4-4.3C770.7,788.2,772.4,787.1,774.1,786z" data-seat="category-1" />
      <text transform="matrix(1 0 0 1 781.0865 827.4456)">616</text>
    </g>
    <g data-additional-flag="false" data-section="category-1_710" data-category-aliases="category 1">
      <path d="M704.8,865c1.6,16,3.3,32.1,4.9,48.1c-7.4,4.1-15.4,8.2-24,12.1c-5.5,2.5-10.8,4.8-16,6.9 c0-22.4,0-44.7,0-67.1C681.4,865,693.1,865,704.8,865z" data-seat="category-1" />
      <text transform="matrix(1 0 0 1 679.9437 896.4228)">710</text>
    </g>
    <g data-additional-flag="false" data-section="category-1_711" data-category-aliases="category 1">
      <path d="M739.1,870c2.9,6.9,5.7,13.7,8.6,20.6c-4.5,3.1-9.2,6.1-14,9.2c-5.9,3.8-11.7,7.3-17.4,10.7 c-1.7-11-3.4-22-5.1-33c4.4-0.9,9-1.9,13.8-3.2C729.9,872.9,734.7,871.5,739.1,870z" data-seat="category-1" />
      <text transform="matrix(1 0 0 1 722.9437 889.4228)">711</text>
    </g>
    <g data-additional-flag="false" data-section="category-1_702" data-category-aliases="category 1">
      <path d="M261.7,864c-1.6,15.6-3.1,31.2-4.7,46.8c7.5,4.3,15.5,8.5,24.1,12.7c5.6,2.7,11.2,5.3,16.5,7.6 c0-22.4,0-44.7,0-67.1C285.6,864,273.7,864,261.7,864z" data-seat="category-1" />
      <text transform="matrix(1 0 0 1 269.3297 894.8141)">702</text>
    </g>
    <g data-additional-flag="false" data-section="category-1_701" data-category-aliases="category 1">
      <path d="M228.6,865.9l-9,21.6c4.2,3,8.8,6.1,14,9.2c6.6,3.9,12.9,7.1,18.7,9.7c1.3-11.1,2.7-22.1,4-33.2 c-4.2-0.8-8.6-1.8-13.1-3C238.1,868.9,233.2,867.5,228.6,865.9z" data-seat="category-1" />
      <text transform="matrix(1 0 0 1 231.3226 885.6944)">701</text>
    </g>
    <g data-additional-flag="false" data-section="category-1_132" data-category-aliases="category 1">
      <path d="M279.8,338.8c-4-4.9-8.1-9.7-12.1-14.6c1.2-1.2,2.6-2.5,4.3-3.8c1-0.8,2-1.6,3-2.2c-4.9-11.5-9.9-23-14.8-34.5 c1.1-0.6,2.3-1.1,3.6-1.6c3.3-1.4,6.5-2.4,9.3-3.2c-4.4-19.6-8.8-39.1-13.2-58.7c5.2-0.8,10.9-1.5,16.9-2 c7.9-0.6,15.3-0.8,22.1-0.6c0.1,39.2,0.2,78.5,0.3,117.7c-2.4-0.1-5.3-0.1-8.7,0.4C286,336.3,282.4,337.6,279.8,338.8z" data-seat="category-1" />
      <text transform="matrix(1 0 0 1 276.0376 298.7377)">132</text>
    </g>
    <g data-additional-flag="false" data-section="category-1_551" data-category-aliases="category 1">
      <path d="M194.1,186.2c-12-18.3-23.9-36.6-35.9-54.9c2.1-2.1,4.4-4.3,6.9-6.5c2.4-2.1,4.8-4.1,7.1-5.9 c11.5,19.9,22.9,39.8,34.4,59.7C202.4,181.2,198.2,183.7,194.1,186.2z" data-seat="category-1" />
      <text transform="matrix(1 0 0 1 173.8203 152.0186)">551</text>
    </g>
    <g data-additional-flag="false" data-section="category-1_626" data-category-aliases="category 1">
      <path d="M210.7,177.3c-11.4-20.7-22.9-41.3-34.3-62c2.8-2.3,5.8-4.7,8.8-7c3.3-2.6,6.6-5.1,9.9-7.4 c10.3,23.5,20.7,47,31,70.5c-1.7,0.5-3.5,1.1-5.3,1.8C217.1,174.4,213.7,175.9,210.7,177.3z" data-seat="category-1" />
      <text transform="matrix(1 0 0 1 190.8647 139.4654)">626</text>
    </g>
    <g data-additional-flag="false" data-section="category-1_625" data-category-aliases="category 1">
      <path d="M230.5,170.3c-10.6-23.8-21.3-47.6-31.9-71.4c4-2.9,8.2-5.9,12.3-8.8c14.8-10.3,29.4-19.8,43.7-28.5 c2.9,33.8,5.8,67.6,8.6,101.4c-5.2,0.5-11,1.4-17.3,2.8C240.3,167.2,235.1,168.7,230.5,170.3z" data-seat="category-1" />
      <text transform="matrix(1 0 0 1 224.605 123.2175)">625</text>
    </g>
    <g data-additional-flag="false" data-section="category-1_624" data-category-aliases="category 1">
      <polygon points="266.7,163 263.7,111 298.6,111 298.6,163 " data-seat="category-1" />
      <text transform="matrix(1 0 0 1 272.2141 137.0113)">624</text>
    </g>
    <g data-additional-flag="false" data-section="category-1_720" data-category-aliases="category 1">
      <path d="M263.4,106.9c-1.3-15.9-2.6-31.8-3.9-47.6c6.7-4,14.2-8,22.5-11.8c5.7-2.6,11.3-4.9,16.5-6.8 c0,22.1,0,44.2,0,66.3C286.9,106.9,275.1,106.9,263.4,106.9z" data-seat="category-1" />
      <text transform="matrix(1 0 0 1 270.3295 80.6155)">720</text>
    </g>
    <g data-additional-flag="false" data-section="category-1_719" data-category-aliases="category 1">
      <path d="M302.8,96.7h42.1V25.1c-6.5,1.9-13.2,4-20,6.3c-7.7,2.6-15.1,5.2-22.2,7.9C302.8,58.5,302.8,77.6,302.8,96.7z" data-seat="category-1" />
      <text transform="matrix(1 0 0 1 315.4515 67.973)">719</text>
    </g>
    <g data-additional-flag="false" data-section="category-1_623" data-category-aliases="category 1">
      <rect x="302.8" y="100.8" width="42.1" height="62.2" data-seat="category-1" />
      <text transform="matrix(1 0 0 1 313.9407 135.4655)">623</text>
    </g>
    <g data-additional-flag="false" data-section="category-1_622" data-category-aliases="category 1">
      <rect x="348.1" y="100.8" width="51" height="62.2" data-seat="category-1" />
      <text transform="matrix(1 0 0 1 364.004 135.5854)">622</text>
    </g>
    <g data-additional-flag="false" data-section="category-1_718" data-category-aliases="category 1">
      <path d="M348.1,24.2v72.5h51V11.9c-9.4,2.1-18.8,4.3-28.4,6.7C363,20.4,355.5,22.3,348.1,24.2z" data-seat="category-1" />
      <text transform="matrix(1 0 0 1 364.6542 59.0623)">718</text>
    </g>
    <g data-additional-flag="false" data-section="category-1_717" data-category-aliases="category 1">
      <path d="M402.6,11.3v85.4h50.2V4.9c-7.3,0.6-14.8,1.3-22.5,2.3C420.6,8.4,411.3,9.8,402.6,11.3z" data-seat="category-1" />
      <text transform="matrix(1 0 0 1 421.8764 54.3491)">717</text>
    </g>
    <g data-additional-flag="false" data-section="category-1_621" data-category-aliases="category 1">
      <rect x="402.6" y="100.8" width="50.2" height="62.2" data-seat="category-1" />
      <text transform="matrix(1 0 0 1 418.9727 135.4657)">621</text>
    </g>
    <g data-additional-flag="false" data-section="category-1_620" data-category-aliases="category 1">
      <rect x="457.2" y="100.8" width="52.1" height="62.2" data-seat="category-1" />
      <text transform="matrix(1 0 0 1 474.3685 135.7055)">620</text>
    </g>
    <g data-additional-flag="false" data-section="category-1_619" data-category-aliases="category 1">
      <rect x="513.6" y="100.8" width="49.4" height="62.2" data-seat="category-1" />
      <text transform="matrix(1 0 0 1 530.3685 135.7055)">619</text>
    </g>
    <g data-additional-flag="false" data-section="category-1_618" data-category-aliases="category 1">
      <rect x="567.4" y="100.8" width="50.1" height="62.2" data-seat="category-1" />
      <text transform="matrix(1 0 0 1 584.3685 135.7055)">618</text>
    </g>
    <g data-additional-flag="false" data-section="category-1_714" data-category-aliases="category 1">
      <path d="M617.5,24.2v72.5h-50.1V11.9c9.2,2.1,18.5,4.3,27.9,6.7C602.8,20.4,610.2,22.3,617.5,24.2z" data-seat="category-1" />
      <text transform="matrix(1 0 0 1 584.3685 59.7055)">714</text>
    </g>
    <g data-additional-flag="false" data-section="category-1_713" data-category-aliases="category 1">
      <path d="M663.8,96.7h-42.1V25.1c6.5,1.9,13.2,4,20,6.3c7.7,2.6,15.1,5.2,22.2,7.9C663.8,58.5,663.8,77.6,663.8,96.7z" data-seat="category-1" />
      <text transform="matrix(1 0 0 1 634.3685 65.7055)">713</text>
    </g>
    <g data-additional-flag="false" data-section="category-1_617" data-category-aliases="category 1">
      <rect x="621.6" y="100.8" width="41.8" height="62.2" data-seat="category-1" />
      <text transform="matrix(1 0 0 1 635.3685 136.7055)">617</text>
    </g>
    <g data-additional-flag="false" data-section="category-1_616" data-category-aliases="category 1">
      <polygon points="698.7,163 701.7,111 666.8,111 666.8,163 " data-seat="category-1" />
      <text transform="matrix(1 0 0 1 675.3685 140.7055)">616</text>
    </g>
    <g data-additional-flag="false" data-section="category-1_615" data-category-aliases="category 1">
      <path d="M735.7,170.5c10.8-23.7,21.6-47.4,32.4-71c-8.8-6.2-17.8-12.4-27-18.6c-9.8-6.6-19.6-13-29.2-19.2 c-3,33.9-6,67.7-9,101.6c4.8,0.7,9.8,1.6,15.1,2.7C724.4,167.3,730.3,168.8,735.7,170.5z" data-seat="category-1" />
      <text transform="matrix(1 0 0 1 722.0276 124.0177)">615</text>
    </g>
    <g data-additional-flag="false" data-section="category-1_614" data-category-aliases="category 1">
      <path d="M755.7,177.3c11.4-20.7,22.9-41.3,34.3-62c-2.8-2.3-5.8-4.7-8.8-7c-3.3-2.6-6.6-5.1-9.9-7.4 c-10.3,23.5-20.7,47-31,70.5c1.7,0.5,3.5,1.1,5.3,1.8C749.3,174.4,752.6,175.9,755.7,177.3z" data-seat="category-1" />
      <text transform="matrix(1 0 0 1 756.8978 145.0501)">614</text>
    </g>
    <g data-additional-flag="false" data-section="category-1_540" data-category-aliases="category 1">
      <path d="M772.9,186.8c11.9-18.7,23.8-37.3,35.7-56c-2-1.9-4.1-3.9-6.4-6c-2.6-2.3-5.2-4.4-7.7-6.4 c-11.4,20.2-22.8,40.5-34.2,60.8L772.9,186.8z" data-seat="category-1" />
      <text transform="matrix(1 0 0 1 778.9132 153.8607)">540</text>
    </g>
    <g data-additional-flag="false" data-section="category-1_712" data-category-aliases="category 1">
      <path d="M702.2,107.1c1.7-15.9,3.4-31.8,5.2-47.7c-8-3.9-16.1-7.8-24.4-11.6c-5.4-2.5-10.8-4.9-16.1-7.3 c0,22.2,0,44.4,0,66.6C678.6,107.1,690.4,107.1,702.2,107.1z" data-seat="category-1" />
      <text transform="matrix(1 0 0 1 679.3685 81.7055)">712</text>
    </g>
    <g data-additional-flag="false" data-section="category-1_716" data-category-aliases="category 1">
      <path d="M509.4,96.7h-52.1c0-30.7,0-61.5,0-92.2c7.9-0.5,16.4-0.8,25.4-0.8c9.5,0.1,18.4,0.5,26.7,1.2 C509.4,35.5,509.4,66.1,509.4,96.7z" data-seat="category-1" />
      <text transform="matrix(1 0 0 1 474.662 50.828)">716</text>
    </g>
    <g data-additional-flag="false" data-section="category-1_715" data-category-aliases="category 1">
      <path d="M563,11.3v85.4h-49.5V4.9c7.2,0.6,14.6,1.3,22.2,2.3C545.2,8.4,554.3,9.8,563,11.3z" data-seat="category-1" />
      <text transform="matrix(1 0 0 1 530.0406 52.0623)">715</text>
    </g>
  </g>
  <g data-category="category-2">
    <g data-additional-flag="false" data-section="category-2_560" data-category-aliases="category 2">
      <path d="M85.8,375.1v-31.8l-57.1-12.7c-2.3,6.8-4.6,14.3-6.6,22.5c-1.9,7.8-3.3,15.2-4.2,22 C40.5,375.1,63.2,375.1,85.8,375.1z" data-seat="category-2" />
      <text transform="matrix(1 0 0 1 41.1726 359.8597)">560</text>
    </g>
    <g data-additional-flag="false" data-section="category-2_559" data-category-aliases="category 2">
      <path d="M75.6,335.3c-14.8-3.2-29.7-6.3-44.5-9.5c2.3-8.6,5.6-18.4,10.3-28.8c2.8-6.2,5.8-11.9,8.8-17 c12.3,5.3,24.6,10.5,36.9,15.8C85,301.5,83,307.5,81,314C78.8,321.5,77,328.6,75.6,335.3z" data-seat="category-2" />
      <text transform="matrix(1 0 0 1 50.1726 311.8597)">559</text>
    </g>
    <g data-additional-flag="false" data-section="category-2_409" data-category-aliases="category 2">
      <path d="M142.4,330.4c-13.9-3.5-27.8-6.9-41.8-10.4c1.3-4.6,2.7-9.3,4.4-14.2c2.1-6.2,4.3-12.1,6.6-17.5 c13.6,5.8,27.2,11.7,40.8,17.5c-1.4,2.9-2.9,6-4.3,9.3C145.9,320.4,144,325.5,142.4,330.4z" data-seat="category-2" />
      <text transform="matrix(1 0 0 1 116.0254 314.1902)">409</text>
    </g>
    <g data-additional-flag="false" data-section="category-2_410" data-category-aliases="category 2">
      <path d="M91.1,375.1c15.7,0,31.4,0,47,0c0-6.8,0.2-14.2,0.8-22c0.6-6.9,1.4-13.3,2.3-19.3c-14-3.3-28-6.7-42-10 c-0.8,3.1-1.6,6.5-2.3,10.1c-0.5,3-0.9,5.9-1.2,8.6c-1.6,0.1-3.2,0.2-4.8,0.3C91.1,353.6,91.1,364.4,91.1,375.1z" data-seat="category-2" />
      <text transform="matrix(1 0 0 1 107.6853 355.9293)">410</text>
    </g>
    <g data-additional-flag="false" data-section="category-2_556" data-category-aliases="category 2">
      <path d="M112.9,284.8c1.6-4.1,3.7-8.7,6.4-13.6c3.1-5.5,6.3-10.1,9.3-14c12.3,8.7,24.7,17.3,37,26 c-2.1,2.9-4.2,6-6.2,9.4c-2.1,3.5-4,6.9-5.6,10.1C140.2,296.8,126.5,290.8,112.9,284.8z" data-seat="category-2" />
      <text transform="matrix(1 0 0 1 128.0866 284.6256)">556</text>
    </g>
    <g data-additional-flag="false" data-section="category-2_553" data-category-aliases="category 2">
      <path d="M168.1,279.7c5.3-7.3,12.1-15.5,20.5-23.7c5.6-5.4,11-10.1,16.2-14.1c-9.3-13-18.6-25.9-27.9-38.9 c-8,5.9-17,13.4-26.2,22.7s-16.6,18.4-22.4,26.5C141.5,261.4,154.8,270.6,168.1,279.7z" data-seat="category-2" />
      <text transform="matrix(1 0 0 1 157.6636 245.5373)">553</text>
    </g>
    <g data-additional-flag="false" data-section="category-2_536" data-category-aliases="category 2">
      <path d="M798.3,280.7c-5.3-7.3-12.1-15.5-20.5-23.7c-5.6-5.4-11-10.1-16.2-14.1c9.3-13,18.6-25.9,27.9-38.9 c8,5.9,17,13.4,26.2,22.7s16.6,18.4,22.4,26.5C824.9,262.4,811.6,271.6,798.3,280.7z" data-seat="category-2" />
      <text transform="matrix(1 0 0 1 790.0435 247.2965)">536</text>
    </g>
    <g data-additional-flag="false" data-section="category-2_534" data-category-aliases="category 2">
      <path d="M853.5,285.8c-1.8-3.9-3.9-7.9-6.2-12.1c-3.1-5.7-6.3-10.8-9.5-15.5c-12.3,8.6-24.6,17.3-36.9,25.9 c2,2.9,4.1,6.1,6.1,9.5c2,3.3,3.8,6.5,5.4,9.6C826.1,297.4,839.8,291.6,853.5,285.8z" data-seat="category-2" />
      <text transform="matrix(1 0 0 1 818.0435 286.2964)">534</text>
    </g>
    <g data-additional-flag="false" data-section="category-2_408" data-category-aliases="category 2">
      <path d="M823.2,330.2c13.9-3.2,27.8-6.4,41.7-9.6c-0.9-4.1-2-8.6-3.4-13.2c-2.1-6.8-4.5-12.8-6.9-18 c-13.5,5.9-27,11.8-40.5,17.7c1.3,2.6,2.6,5.4,3.9,8.4C820.2,320.7,821.9,325.7,823.2,330.2z" data-seat="category-2" />
      <text transform="matrix(1 0 0 1 831.0435 315.2964)">408</text>
    </g>
    <g data-additional-flag="false" data-section="category-2_407" data-category-aliases="category 2">
      <path d="M874.3,375.3h-46.6c0.3-6.3,0.3-13.6-0.4-21.6c-0.6-7.2-1.7-13.6-3-19.3c14-3.3,28-6.7,42-10 c0.9,3.1,1.8,6.6,2.4,10.5c0.5,2.9,0.8,5.7,0.9,8.3c1.6,0,3.1,0,4.7,0C874.3,353.9,874.3,364.6,874.3,375.3z" data-seat="category-2" />
      <text transform="matrix(1 0 0 1 839.5558 356.5566)">407</text>
    </g>
    <g data-additional-flag="false" data-section="category-2_120" data-category-aliases="category 2">
      <path d="M824.2,375.2c0.2-6.7,0-14.3-0.9-22.6c-0.7-6.5-1.7-12.4-2.9-17.8c-19.5,5.3-38.9,10.6-58.4,15.9 c-0.4-1.7-0.8-3.4-1.4-5.2c-1.2-4.2-2.7-8-4.2-11.3c-11.4,5.6-22.9,11.2-34.3,16.8c-2.3-3.2-4.7-6.3-7-9.5 c-4.4,4.5-8.7,9.1-13.1,13.6c1.3,2.8,2.5,5.6,3.8,8.4c0.1,3.9,0.2,7.8,0.3,11.7C745.5,375.2,784.8,375.2,824.2,375.2z" data-seat="category-2" />
      <text transform="matrix(1 0 0 1 756.3273 366.5199)">120</text>
    </g>
    <g data-additional-flag="false" data-section="category-2_406" data-category-aliases="category 2">
      <rect x="827.8" y="379" width="46.7" height="51.6" data-seat="category-2" />
      <text transform="matrix(1 0 0 1 840.5558 408.5566)">406</text>
    </g>
    <g data-additional-flag="false" data-section="category-2_119" data-category-aliases="category 2">
      <rect x="706.3" y="378.9" width="118.3" height="51.3" data-seat="category-2" />
      <text transform="matrix(1 0 0 1 756.3273 409.5199)">119</text>
    </g>
    <g data-additional-flag="false" data-section="category-2_403" data-category-aliases="category 2">
      <path d="M827.8,594.2v-51.1h46.7c0,17,0,34.1,0,51.1C859,594.2,843.4,594.2,827.8,594.2z" data-seat="category-2" />
      <text transform="matrix(1 0 0 1 840.5558 570.5566)">403</text>
    </g>
    <g data-additional-flag="false" data-section="category-2_116" data-category-aliases="category 2">
      <rect x="706.3" y="543.2" width="118.3" height="51" data-seat="category-2" />
      <text transform="matrix(1 0 0 1 756.3273 571.5198)">116</text>
    </g>
    <g data-additional-flag="false" data-section="category-2_402" data-category-aliases="category 2">
      <path d="M874.5,597.9c-15.4-0.1-30.8-0.1-46.2-0.2c0.2,6.5,0.1,13.8-0.5,21.7c-0.5,7.2-1.4,13.8-2.4,19.7 c13.8,3.7,27.7,7.3,41.5,11c0.5-1.8,1.1-4.1,1.7-6.8c0.3-1.2,0.7-3,1.1-5.2c0.5-3,0.9-5.9,1.2-8.6c1.3,0,2.5,0,3.8,0 C874.6,618.9,874.5,608.4,874.5,597.9z" data-seat="category-2" />
      <text transform="matrix(1 0 0 1 840.5558 621.5566)">402</text>
    </g>
    <g data-additional-flag="false" data-section="category-2_115" data-category-aliases="category 2">
      <path d="M707.6,597.7c39.1,0,78.1,0,117.2,0c0.2,7.7,0,16.6-1.4,26.3c-0.7,5-1.6,9.6-2.6,14 c-18.9-5.3-37.7-10.6-56.6-15.9c-0.8,2.7-1.7,5.5-2.8,8.5c-1.1,2.9-2.2,5.6-3.3,8.1c-11.5-5.5-22.9-11.1-34.4-16.6 c-2.2,2.9-4.5,5.7-6.7,8.6c-4.9-4.3-9.8-8.7-14.7-13c1.8-2.8,3.6-5.6,5.4-8.4v-11.6L707.6,597.7L707.6,597.7z" data-seat="category-2" />
      <text transform="matrix(1 0 0 1 780.3273 615.5198)">115</text>
    </g>
    <g data-additional-flag="false" data-section="category-2_114" data-category-aliases="category 2">
      <path d="M767.9,626.7c-1.6,4.5-3.5,9.4-6.1,14.7c-2.5,5.1-5.1,9.7-7.7,13.6c15.1,10.8,30.2,21.6,45.3,32.4 c4.1-6.1,8.7-13.7,12.7-23c3.7-8.3,6.1-16,7.8-22.7C802.5,636.7,785.2,631.7,767.9,626.7z" data-seat="category-2" />
      <text transform="matrix(1 0 0 1 781.6891 657.0386)">114</text>
    </g>
    <g data-additional-flag="false" data-section="category-2_142" data-category-aliases="category 2">
      <path d="M147,640.9c1.8,6.6,4.3,14,7.9,22.1c4,9,8.4,16.6,12.5,22.7c15.3-11,30.6-22,45.9-33 c-2.4-3.3-5.2-7.6-7.6-12.9c-2.5-5.5-4-10.5-4.9-14.6C183,630.4,165,635.6,147,640.9z" data-seat="category-2" />
      <text transform="matrix(1 0 0 1 171.6891 656.0386)">142</text>
    </g>
    <g data-additional-flag="false" data-section="category-2_113" data-category-aliases="category 2">
      <path d="M756.5,643.7c-10.4-5.5-20.8-11.1-31.2-16.6c-1.6,2-3.3,3.9-4.9,5.9c0.9,0.8,1.8,1.6,2.7,2.4 c-5.2,5.5-10.5,10.9-15.7,16.4c-0.8-0.8-1.6-1.6-2.4-2.4c-2.3,2-4.5,4-6.8,5.9c4.5,10.6,9,21.2,13.4,31.7c2.1-1.1,4.4-2.3,6.8-3.9 c2.4-1.5,4.4-3.1,6.2-4.6c12.5,16.1,25,32.2,37.4,48.3c5.9-4.9,12.2-10.7,18.6-17.4c6.4-6.7,12-13.2,16.7-19.3 c-16.4-11.5-32.8-23.1-49.3-34.6c1.6-1.7,3.3-3.7,5-6.1C754.4,647.4,755.6,645.5,756.5,643.7z" data-seat="category-2" />
      <text transform="matrix(1 0 0 1 751.1644 689.7029)">113</text>
    </g>
    <g data-additional-flag="false" data-section="category-2_121" data-category-aliases="category 2">
      <path d="M753,317.8c2.3,3.7,4.8,8.2,7,13.4c2.4,5.6,4,10.7,5.1,15.1c18-5.1,35.9-10.2,53.9-15.3 c-2.1-8.1-5.5-18.1-11.2-28.7c-3.4-6.4-7-11.9-10.5-16.5C782.5,296.5,767.7,307.1,753,317.8z" data-seat="category-2" />
      <text transform="matrix(1 0 0 1 781.3273 322.5199)">121</text>
    </g>
    <g data-additional-flag="false" data-section="category-2_122" data-category-aliases="category 2">
      <path d="M795.4,282.7c-3.7-5.3-8.4-11.1-14-17.1c-7.4-7.8-14.8-13.8-21.3-18.4c-11.9,16-23.9,32.1-35.8,48.1 c-1.6-1.2-3.3-2.5-5.1-3.7c-3-2-5.8-3.7-8.5-5.1c-4.6,10.5-9.1,21-13.7,31.5c2.2,2.1,4.4,4.1,6.6,6.2c1.1-0.7,2.1-1.5,3.2-2.2 c4.4,4.3,8.8,8.7,13.2,13c-1,1-2,2.1-3,3.1c1.4,1.6,2.9,3.2,4.3,5.1c0.7,0.9,1.4,1.8,2,2.6c10.6-5.1,21.1-10.2,31.7-15.3 c-1-2.3-2.1-4.8-3.5-7.4c-1.2-2.3-2.5-4.4-3.7-6.3C763.6,305.5,779.5,294.1,795.4,282.7z" data-seat="category-2" />
      <text transform="matrix(1 0 0 1 749.5394 287.9946)">122</text>
    </g>
    <g data-additional-flag="false" data-section="category-2_134" data-category-aliases="category 2">
      <path d="M171.3,282.4c4.1-5.5,8.8-11.3,14.2-17.2c7.2-7.9,14.3-14.6,21-20.1c12,16.4,23.9,32.8,35.9,49.1 c1.8-1.6,4-3.4,6.7-5.1c2.3-1.5,4.4-2.6,6.4-3.5c4.6,10.6,9.3,21.1,13.9,31.7l-6.7,6.3l-2.8-2.7c-5.1,5.4-10.1,10.9-15.2,16.3 c0.8,0.7,1.6,1.4,2.5,2.2l-5.1,6.4c-10.3-5.3-20.5-10.6-30.8-15.9c1-2,2.2-4.2,3.8-6.6c1.5-2.2,3-4.1,4.4-5.6 C203.4,305.9,187.3,294.1,171.3,282.4z" data-seat="category-2" />
      <text transform="matrix(1 0 0 1 203.0997 288.833)">134</text>
    </g>
    <g data-additional-flag="false" data-section="category-2_135" data-category-aliases="category 2">
      <path d="M168.7,285.6c-3.8,5.5-7.8,12.1-11.5,19.9c-4.3,9-7.2,17.3-9.3,24.5c17.9,5.1,35.8,10.3,53.7,15.4 c1-4.1,2.4-9,4.9-14.4c2.4-5.3,5.1-9.7,7.5-13.1C198.9,307.1,183.8,296.4,168.7,285.6z" data-seat="category-2" />
      <text transform="matrix(1 0 0 1 172.0997 321.833)">135</text>
    </g>
    <g data-additional-flag="false" data-section="category-2_136" data-category-aliases="category 2">
      <path d="M143.5,375.1c0-7.2,0.3-15.2,1.2-23.7c0.7-6.4,1.6-12.4,2.6-18c19.1,5.5,38.1,11.1,57.2,16.6 c0.5-2.6,1.2-5.4,2.1-8.4c0.8-2.7,1.7-5.2,2.6-7.5c11.5,5.3,23.1,10.6,34.6,15.9c2.3-2.7,4.6-5.3,6.9-8c4.7,4.5,9.4,8.9,14.1,13.4 c-1.1,2.7-2.2,5.5-3.3,8.2c0,3.8,0,7.6,0,11.4C222.2,375.1,182.8,375.1,143.5,375.1z" data-seat="category-2" />
      <text transform="matrix(1 0 0 1 187.0997 365.833)">136</text>
    </g>
    <g data-additional-flag="false" data-section="category-2_411" data-category-aliases="category 2">
      <rect x="91" y="379.1" width="46.7" height="50.4" data-seat="category-2" />
      <text transform="matrix(1 0 0 1 107.6853 408.9293)">411</text>
    </g>
    <g data-additional-flag="false" data-section="category-2_137" data-category-aliases="category 2">
      <rect x="142.6" y="379.1" width="118.2" height="50.4" data-seat="category-2" />
      <text transform="matrix(1 0 0 1 187.0997 408.833)">137</text>
    </g>
    <g data-additional-flag="false" data-section="category-2_414" data-category-aliases="category 2">
      <rect x="91" y="543" width="46.7" height="48.7" data-seat="category-2" />
      <text transform="matrix(1 0 0 1 107.6853 569.9294)">414</text>
    </g>
    <g data-additional-flag="false" data-section="category-2_140" data-category-aliases="category 2">
      <rect x="142.6" y="543" width="118.2" height="48.7" data-seat="category-2" />
      <text transform="matrix(1 0 0 1 187.0997 569.8329)">140</text>
    </g>
    <g data-additional-flag="false" data-section="category-2_415" data-category-aliases="category 2">
      <path d="M91,595.8h46.6c-0.2,6.7-0.1,14,0.4,22c0.5,7,1.3,13.4,2.3,19.3c-14,3.3-28,6.7-42,10 c-0.8-3.1-1.6-6.5-2.3-10.1c-0.5-3-0.9-5.9-1.2-8.6c-1.3,0-2.6,0-3.9,0C91,617.5,91,606.6,91,595.8z" data-seat="category-2" />
      <text transform="matrix(1 0 0 1 107.6853 620.9294)">415</text>
    </g>
    <g data-additional-flag="false" data-section="category-2_416" data-category-aliases="category 2">
      <path d="M141.4,640.3c-14,3.5-28,7-42,10.5c1.1,4.3,2.3,9,3.9,13.8c2.1,6.5,4.5,12.4,6.9,17.7 c13.6-5.8,27.2-11.6,40.8-17.4c-1.4-2.8-2.8-5.7-4.1-8.9C144.5,650.4,142.7,645.1,141.4,640.3z" data-seat="category-2" />
      <text transform="matrix(1 0 0 1 115.3767 663.2549)">416</text>
    </g>
    <g data-additional-flag="false" data-section="category-2_569" data-category-aliases="category 2">
      <path d="M111.9,686c1.8,3.9,3.9,7.9,6.2,12.1c3.1,5.7,6.3,10.8,9.5,15.5c11.9-8.5,23.9-16.9,35.8-25.4 c-1.8-3.2-3.7-6.5-5.5-10.1c-1.7-3.3-3.2-6.5-4.6-9.6C139.5,674.4,125.7,680.2,111.9,686z" data-seat="category-2" />
      <text transform="matrix(1 0 0 1 128.3767 692.2549)">569</text>
    </g>
    <g data-additional-flag="false" data-section="category-2_501" data-category-aliases="category 2">
      <path d="M166.1,691.1c5.3,7.3,12.1,15.5,20.5,23.7c5.6,5.4,11,10.1,16.2,14.1c-9.3,13-18.6,25.9-27.9,38.9 c-8-5.9-17-13.4-26.2-22.7s-16.6-18.4-22.4-26.5C139.5,709.4,152.8,700.3,166.1,691.1z" data-seat="category-2" />
      <text transform="matrix(1 0 0 1 156.2458 730.4069)">501</text>
    </g>
    <g data-additional-flag="false" data-section="category-2_141" data-category-aliases="category 2">
      <path d="M142.5,595.8c0,7.2,0.3,15.2,1.2,23.7c0.7,6.4,1.6,12.4,2.6,18c19.1-5.5,38.1-11.1,57.2-16.6 c0.5,2.6,1.2,5.4,2.1,8.4c0.8,2.7,1.7,5.2,2.6,7.5c11.5-5.3,23.1-10.6,34.6-15.9c2.3,2.7,4.6,5.3,6.9,8c4.7-4.5,9.4-8.9,14.1-13.4 c-1.1-2.7-2.2-5.5-3.3-8.2c0-3.8,0-7.6,0-11.4L142.5,595.8L142.5,595.8z" data-seat="category-2" />
      <text transform="matrix(1 0 0 1 187.0997 612.8329)">141</text>
    </g>
    <g data-additional-flag="false" data-section="category-2_101" data-category-aliases="category 2">
      <path d="M169.8,688.9c4,5.6,8.8,11.6,14.6,17.7c7,7.5,14,13.7,20.3,18.7c12.2-16.2,24.4-32.3,36.6-48.5 c1.8,1.6,4,3.4,6.7,5.1c2.3,1.5,4.4,2.6,6.4,3.5c4.6-10.6,9.3-21.1,13.9-31.7l-6.7-6.3l-2.8,2.7c-2.3-2.3-4.6-4.7-6.9-7.2 c-2.9-3-5.6-6.1-8.3-9.1c0.8-0.7,1.6-1.4,2.5-2.2l-5.1-6.4c-10.3,5.3-20.5,10.6-30.8,15.9c1,2,2.2,4.2,3.8,6.6 c1.5,2.2,3,4.1,4.4,5.6C202.2,665.3,186,677.1,169.8,688.9z" data-seat="category-2" />
      <text transform="matrix(1 0 0 1 205.9437 683.4228)">101</text>
    </g>
    <g data-additional-flag="false" data-section="category-2_503" data-category-aliases="category 2">
      <path d="M158.8,760.9l-37.1,41.2c4.3,5.3,9,10.8,14,16.3c6,6.7,12,12.9,17.8,18.6c11.8-18.4,23.6-36.8,35.4-55.2 c-3.5-2-7.2-4.2-10.9-6.7C170.8,770.4,164.4,765.6,158.8,760.9z" data-seat="category-2" />
      <text transform="matrix(1 0 0 1 145.4009 797.1696)">503</text>
    </g>
    <g data-additional-flag="false" data-section="category-2_502" data-category-aliases="category 2">
      <path d="M96.3,773.1c3,4.1,6.4,8.3,10.2,12.7c4,4.6,7.9,8.7,11.6,12.4c12.7-13.3,25.4-26.7,38.1-40 c-2.7-2.4-5.5-5-8.4-7.7c-4.1-4-7.8-7.9-11.2-11.7C123.2,750.2,109.8,761.6,96.3,773.1z" data-seat="category-2" />
      <text transform="matrix(1 0 0 1 116.7268 770.0998)">502</text>
    </g>
    <g data-additional-flag="false" data-section="category-2_570" data-category-aliases="category 2">
      <path d="M100,709.3c-11,6.1-22,12.3-33.1,18.4c4.3,7.8,9.1,15.9,14.6,24.2c3.9,6,7.9,11.8,11.8,17.1 c13.6-11.3,27.2-22.5,40.8-33.8c-2.2-2.6-4.4-5.3-6.6-8c-2.9-3.6-5.6-7.1-8.3-10.6c-3.4,1.9-6.8,3.8-10.2,5.6c-1.5-1.8-3-3.8-4.5-6 C102.8,713.9,101.3,711.6,100,709.3z" data-seat="category-2" />
      <text transform="matrix(1 0 0 1 89.1132 740.5759)">570</text>
    </g>
    <g data-additional-flag="false" data-section="category-2_568" data-category-aliases="category 2">
      <path d="M86,679.7l-36.1,15.2c2.3,5.2,5,10.6,7.9,16.2c2.4,4.5,4.8,8.7,7.2,12.7c10.9-6.2,21.8-12.4,32.7-18.6 c-1.9-3.5-3.8-7.2-5.6-11.2C89.7,689,87.7,684.2,86,679.7z" data-seat="category-2" />
      <text transform="matrix(1 0 0 1 65.3144 704.3778)">568</text>
    </g>
    <g data-additional-flag="false" data-section="category-2_567" data-category-aliases="category 2">
      <path d="M91,632.5c-4,0.7-8,1.3-12,2c2.1,11.7,5.4,25.3,10.7,40c6.2,17.3,13.5,31.7,20.3,43.1c3.7-2,7.3-4.1,11-6.1 c-5.7-9.6-11.7-21.2-17-34.7C97.5,660.4,93.5,645.3,91,632.5z" data-seat="category-2" />
      <text transform="matrix(1 0 0 1 91.0496 677.242)">567</text>
    </g>
    <g data-additional-flag="false" data-section="category-2_566" data-category-aliases="category 2">
      <path d="M73.6,635.6c-14.8,3.2-29.7,6.3-44.5,9.5c2.3,8.6,5.6,18.4,10.3,28.8c2.8,6.2,5.8,11.9,8.8,17 c12.3-5.3,24.6-10.5,36.9-15.8c-2.1-5.7-4.1-11.7-6.1-18.2C76.8,649.4,75,642.3,73.6,635.6z" data-seat="category-2" />
      <text transform="matrix(1 0 0 1 48.6009 665.2542)">566</text>
    </g>
    <g data-additional-flag="false" data-section="category-2_565" data-category-aliases="category 2">
      <path d="M85.5,595.8v31.8l-57.7,12.7c-2.3-7.2-4.5-14.7-6.6-22.5c-2.1-7.6-3.9-14.9-5.5-22 C39,595.8,62.2,595.8,85.5,595.8z" data-seat="category-2" />
      <text transform="matrix(1 0 0 1 39.0579 618.06)">565</text>
    </g>
    <g data-additional-flag="false" data-section="category-2_518" data-category-aliases="category 2">
      <path d="M763.5,730.7c9.4,12.9,18.8,25.8,28.2,38.7c8.9-6.6,19-15,29.1-25.7c7.8-8.2,14.3-16.3,19.7-23.7 c-13.3-9.4-26.7-18.8-40-28.1c-3.1,4.1-6.5,8.4-10.3,12.6C781.2,715,772,723.6,763.5,730.7z" data-seat="category-2" />
      <text transform="matrix(1 0 0 1 792.5208 732.2212)">518</text>
    </g>
    <g data-additional-flag="false" data-section="category-2_521" data-category-aliases="category 2">
      <path d="M855.4,687c-1.8,3.9-3.9,7.9-6.2,12.1c-3.1,5.7-6.3,10.8-9.5,15.5c-12.4-8.4-24.8-16.8-37.1-25.2 c2.6-3.5,5.2-7.5,7.7-11.8c1.7-2.9,3.3-5.8,4.7-8.6C828.5,675.1,842,681.1,855.4,687z" data-seat="category-2" />
      <text transform="matrix(1 0 0 1 821.5208 694.2212)">521</text>
    </g>
    <g data-additional-flag="false" data-section="category-2_401" data-category-aliases="category 2">
      <path d="M824.5,643.1c14.3,3.7,28.5,7.5,42.8,11.2c-0.9,3.6-2,7.4-3.3,11.3c-2.1,6.5-4.5,12.4-6.9,17.7 c-13.6-5.8-27.3-11.7-40.9-17.5c1.3-2.9,2.5-5.9,3.8-9.1C821.8,652,823.3,647.4,824.5,643.1z" data-seat="category-2" />
      <text transform="matrix(1 0 0 1 832.5208 664.2212)">401</text>
    </g>
    <g data-additional-flag="false" data-section="category-2_517" data-category-aliases="category 2">
      <path d="M807.8,762.1c12.3,13.9,24.6,27.7,37,41.6c-3.9,5.1-8.3,10.4-13.2,15.8c-6.3,7-12.6,13.1-18.5,18.4 c-11.6-18.1-23.3-36.1-34.9-54.2c3.9-2.2,7.9-4.8,12-7.7C796.9,771.3,802.7,766.6,807.8,762.1z" data-seat="category-2" />
      <text transform="matrix(1 0 0 1 805.0865 800.4456)">517</text>
    </g>
    <g data-additional-flag="false" data-section="category-2_519" data-category-aliases="category 2">
      <path d="M869.9,774.5c-2.8,3.9-6,8.1-9.6,12.3c-4.1,4.8-8.1,9-12,12.6c-12.6-13.2-25.2-26.4-37.8-39.7 c2.9-2.6,5.9-5.4,8.9-8.3c3.7-3.7,7.2-7.3,10.5-10.9C843.2,751.9,856.6,763.2,869.9,774.5z" data-seat="category-2" />
      <text transform="matrix(1 0 0 1 834.0865 772.4456)">519</text>
    </g>
    <g data-additional-flag="false" data-section="category-2_520" data-category-aliases="category 2">
      <path d="M866.7,710.1c11,5.9,21.9,11.9,32.9,17.8c-4.4,8-9.3,16.4-15,25c-3.7,5.7-7.5,11.2-11.2,16.3 c-13.6-11-27.2-22-40.7-33c2-2.4,4.1-4.9,6.1-7.5c3-3.7,5.8-7.5,8.5-11.1c3.3,2.1,6.7,4.1,10,6.2c1.5-1.8,3-3.8,4.5-6 C863.7,715.1,865.3,712.5,866.7,710.1z" data-seat="category-2" />
      <text transform="matrix(1 0 0 1 859.7185 741.9353)">520</text>
    </g>
    <g data-additional-flag="false" data-section="category-2_522" data-category-aliases="category 2">
      <path d="M880.7,680.3c11.9,5,23.8,10,35.8,15c-1.9,5.1-4.3,10.9-7.6,16.9c-2.4,4.4-4.9,8.4-7.3,11.8 c-10.8-5.9-21.6-11.8-32.5-17.7c1.9-3.5,3.9-7.3,5.8-11.4C877.2,689.8,879.1,684.9,880.7,680.3z" data-seat="category-2" />
      <text transform="matrix(1 0 0 1 882.7763 705.305)">522</text>
    </g>
    <g data-additional-flag="false" data-section="category-2_524" data-category-aliases="category 2">
      <path d="M875.5,634.1c4,0.6,8,1.2,12,1.8c-1.8,11.4-4.8,24.9-9.9,39.6c-6.1,17.5-13.5,31.9-20.3,43.1 c-3.5-2.4-6.9-4.7-10.4-7.1c5.5-9.3,11.3-20.5,16.4-33.7C869.7,661.5,873.4,646.5,875.5,634.1z" data-seat="category-2" />
      <text transform="matrix(1 0 0 1 864.9958 678.3384)">524</text>
    </g>
    <g data-additional-flag="false" data-section="category-2_523" data-category-aliases="category 2">
      <path d="M893.3,636.3c14.7,3,29.3,6,44,9.1c-2.5,8.6-6,18.4-10.8,28.6c-2.8,5.9-5.7,11.4-8.7,16.3 c-11.8-4.9-23.6-9.7-35.4-14.6c1.8-6,3.7-12.2,5.4-18.6C889.8,650,891.6,643.1,893.3,636.3z" data-seat="category-2" />
      <text transform="matrix(1 0 0 1 898.7763 665.305)">523</text>
    </g>
    <g data-additional-flag="false" data-section="category-2_525" data-category-aliases="category 2">
      <path d="M881,596.8c0,10.8,0,21.6,0.1,32.3c19.3,3.8,38.5,7.5,57.9,11.3c2.2-6.4,4.5-13.5,6.5-21.2 c2-8,3.5-15.5,4.8-22.4C927,596.8,904,596.8,881,596.8z" data-seat="category-2" />
      <text transform="matrix(1 0 0 1 901.7763 617.305)">525</text>
    </g>
    <g data-additional-flag="false" data-section="category-2_530" data-category-aliases="category 2">
      <path d="M880.8,375.1c0-10.3,0-20.5,0-30.8c18.9-4,37.8-8,56.7-12c2,6.6,4,13.5,5.9,20.7c2,7.6,3.8,14.9,5.4,22 C926.1,375.1,903.4,375.1,880.8,375.1z" data-seat="category-2" />
      <text transform="matrix(1 0 0 1 901.7763 361.305)">530</text>
    </g>
    <g data-additional-flag="false" data-section="category-2_531" data-category-aliases="category 2">
      <path d="M873.8,338.9c4-0.9,7.9-1.8,11.9-2.8c-1.9-11.3-5-24.5-10-38.8c-6.1-17.4-13.5-31.8-20.3-43.1 c-3.5,2.4-6.9,4.7-10.4,7.1c5.5,9.3,11.3,20.5,16.4,33.7C867.8,311.4,871.6,326.4,873.8,338.9z" data-seat="category-2" />
      <text transform="matrix(1 0 0 1 863.973 298.2964)">531</text>
    </g>
    <g data-additional-flag="false" data-section="category-2_558" data-category-aliases="category 2">
      <path d="M92,338.4c-4-0.7-8-1.3-12-2c2.1-11.7,5.4-25.3,10.7-40c6.2-17.3,13.5-31.7,20.3-43.1 c3.5,2.4,6.9,4.7,10.4,7.1c-5.5,9.4-11.3,20.7-16.4,33.7C98.4,310.5,94.5,325.6,92,338.4z" data-seat="category-2" />
      <text transform="matrix(1 0 0 1 93.999 292.9315)">558</text>
    </g>
    <g data-additional-flag="false" data-section="category-2_557" data-category-aliases="category 2">
      <path d="M88,291.2L51.9,276c2.3-5.2,5-10.6,7.9-16.2c2.4-4.5,4.8-8.7,7.2-12.7c10.9,6.2,21.8,12.4,32.7,18.6 c-1.9,3.5-3.8,7.2-5.6,11.2C91.7,281.9,89.7,286.7,88,291.2z" data-seat="category-2" />
      <text transform="matrix(1 0 0 1 66.1726 272.8597)">557</text>
    </g>
    <g data-additional-flag="false" data-section="category-2_555" data-category-aliases="category 2">
      <path d="M102,261.5c-11-6.1-22-12.3-33.1-18.4c3.8-7.6,8.4-15.9,13.9-24.5c3.9-6,7.9-11.6,11.7-16.6 c13.7,11.4,27.3,22.7,41,34.1c-2,2.4-4,4.9-6,7.4c-2.9,3.6-5.6,7.1-8.3,10.6c-3.4-1.9-6.8-3.8-10.2-5.6c-1.5,1.8-3,3.8-4.5,6 C104.8,257,103.3,259.3,102,261.5z" data-seat="category-2" />
      <text transform="matrix(1 0 0 1 89.1726 235.8597)">555</text>
    </g>
    <g data-additional-flag="false" data-section="category-2_554" data-category-aliases="category 2">
      <path d="M98.5,197.8c2.4-3.6,5.2-7.3,8.3-11.1c4.3-5.2,8.5-9.8,12.6-13.7c12.7,13.3,25.5,26.6,38.2,39.9 c-4,3.6-8,7.6-12.1,11.8c-2.4,2.5-4.6,4.9-6.8,7.3C125.3,220.6,111.9,209.2,98.5,197.8z" data-seat="category-2" />
      <text transform="matrix(1 0 0 1 115.3757 203.099)">554</text>
    </g>
    <g data-additional-flag="false" data-section="category-2_552" data-category-aliases="category 2">
      <path d="M160.9,209.9c-12.7-13.7-25.5-27.3-38.2-41c4.6-5.5,9.6-11.1,14.8-16.8c5.8-6.3,11.6-12.3,17.2-17.9 c11.7,18.3,23.4,36.6,35.2,54.9c-4.6,2.8-9.5,6-14.5,9.6C170.1,202.5,165.3,206.2,160.9,209.9z" data-seat="category-2" />
      <text transform="matrix(1 0 0 1 143.5079 174.2832)">552</text>
    </g>
    <g data-additional-flag="false" data-section="category-2_538" data-category-aliases="category 2">
      <path d="M805.6,210.2c12.5-13.5,25.1-27.1,37.6-40.6c-4.7-5.6-9.5-11.2-14.6-16.9c-5.6-6.3-11.1-12.3-16.6-18.1 c-12,18.1-23.9,36.3-35.9,54.4c3.3,2.2,6.7,4.5,10.1,6.9C793.1,200.7,799.5,205.5,805.6,210.2z" data-seat="category-2" />
      <text transform="matrix(1 0 0 1 799.9222 178.6785)">538</text>
    </g>
    <g data-additional-flag="false" data-section="category-2_537" data-category-aliases="category 2">
      <path d="M868,197.8c-3-4.1-6.4-8.3-10.2-12.7c-4-4.6-7.9-8.7-11.6-12.4c-12.7,13.3-25.4,26.7-38.1,40 c2.7,2.4,5.5,5,8.4,7.7c4.1,4,7.8,7.9,11.2,11.7C841.2,220.7,854.6,209.2,868,197.8z" data-seat="category-2" />
      <text transform="matrix(1 0 0 1 830.8535 204.9409)">537</text>
    </g>
    <g data-additional-flag="false" data-section="category-2_535" data-category-aliases="category 2">
      <path d="M865.1,261.6c10.8-6,21.6-11.9,32.4-17.9c-4.7-8.1-9.6-16.4-14.7-24.7c-3.4-5.6-6.8-11-10.2-16.3 c-14.1,11-28.2,22-42.4,33c2.2,2.7,4.4,5.4,6.6,8c3,3.7,6,7.3,9,11c3.2-2,6.3-4,9.5-6c1.5,2,3,4,4.5,6 C861.7,256.9,863.4,259.2,865.1,261.6z" data-seat="category-2" />
      <text transform="matrix(1 0 0 1 857.8286 237.3833)">535</text>
    </g>
    <g data-additional-flag="false" data-section="category-2_533" data-category-aliases="category 2">
      <path d="M879,291.5c11.9-5,23.7-10,35.6-14.9c-2.3-5.4-5-11-8.1-16.8c-2.2-4.1-4.4-8-6.6-11.7c-11,6-22.1,12-33.1,18 c1.8,3.5,3.6,7.1,5.4,10.8C874.8,281.9,877,286.8,879,291.5z" data-seat="category-2" />
      <text transform="matrix(1 0 0 1 881.8286 274.3832)">533</text>
    </g>
    <g data-additional-flag="false" data-section="category-2_532" data-category-aliases="category 2">
      <path d="M891.8,336.3c14.5-3.1,29-6.2,43.5-9.3c-2.5-8.8-5.7-18.6-10.2-28.9c-2.6-6.1-5.4-11.8-8.2-17 c-12.3,5-24.6,10.1-36.9,15.1c2.2,5.8,4.4,12,6.4,18.8C888.7,322.5,890.4,329.7,891.8,336.3z" data-seat="category-2" />
      <text transform="matrix(1 0 0 1 896.0667 312.6649)">532</text>
    </g>
  </g>
  <g data-category="category-3">
    <g data-additional-flag="false" data-section="category-3_405" data-category-aliases="category 3">
      <rect x="827.8" y="434" width="46.7" height="50.7" data-seat="category-3" />
      <text transform="matrix(1 0 0 1 840.5558 463.5566)">405</text>
    </g>
    <g data-additional-flag="false" data-section="category-3_118" data-category-aliases="category 3">
      <rect x="706.3" y="435" width="118.3" height="50.2" data-seat="category-3" />
      <text transform="matrix(1 0 0 1 756.3273 463.5199)">118</text>
    </g>
    <g data-additional-flag="false" data-section="category-3_404" data-category-aliases="category 3">
      <rect x="827.8" y="489.1" width="46.7" height="50.5" data-seat="category-3" />
      <text transform="matrix(1 0 0 1 840.5558 518.5566)">404</text>
    </g>
    <g data-additional-flag="false" data-section="category-3_117" data-category-aliases="category 3">
      <rect x="706.3" y="489" width="118.3" height="50.2" data-seat="category-3" />
      <text transform="matrix(1 0 0 1 756.3273 517.5198)">117</text>
    </g>
    <g data-additional-flag="false" data-section="category-3_412" data-category-aliases="category 3">
      <rect x="91" y="433.1" width="46.7" height="50.7" data-seat="category-3" />
      <text transform="matrix(1 0 0 1 107.6853 461.9293)">412</text>
    </g>
    <g data-additional-flag="false" data-section="category-3_138" data-category-aliases="category 3">
      <rect x="142.6" y="433.1" width="118.2" height="50.7" data-seat="category-3" />
      <text transform="matrix(1 0 0 1 187.0997 461.833)">138</text>
    </g>
    <g data-additional-flag="false" data-section="category-3_413" data-category-aliases="category 3">
      <rect x="91" y="488" width="46.7" height="50.5" data-seat="category-3" />
      <text transform="matrix(1 0 0 1 107.6853 516.9294)">413</text>
    </g>
    <g data-additional-flag="false" data-section="category-3_139" data-category-aliases="category 3">
      <rect x="142.6" y="488" width="118.2" height="50.5" data-seat="category-3" />
      <text transform="matrix(1 0 0 1 187.0997 515.8329)">139</text>
    </g>
    <g data-additional-flag="false" data-section="category-3_564" data-category-aliases="category 3">
      <path d="M7.2,543c0.9,7.2,1.8,14.4,2.9,21.9c1.3,9.2,2.8,18.1,4.3,26.8c23.7,0,47.4,0,71,0V543 C59.4,543,33.3,543,7.2,543z" data-seat="category-3" />
      <text transform="matrix(1 0 0 1 39.0579 570.06)">564</text>
    </g>
    <g data-additional-flag="false" data-section="category-3_561" data-category-aliases="category 3">
      <path d="M7.2,429.5c0.6-7,1.5-14.6,2.9-22.6c1.8-10.3,4.1-19.5,6.6-27.8c23,0,46,0,69,0v50.4 C59.6,429.5,33.4,429.5,7.2,429.5z" data-seat="category-3" />
      <text transform="matrix(1 0 0 1 39.0579 410.06)">561</text>
    </g>
    <g data-additional-flag="false" data-section="category-3_526" data-category-aliases="category 3">
      <path d="M959.3,543.2c-0.7,7-1.6,14.5-2.9,22.3c-1.6,9.8-3.7,18.9-5.8,27.3c-23.2,0-46.4,0-69.6,0v-49.6 C907.1,543.2,933.2,543.2,959.3,543.2z" data-seat="category-3" />
      <text transform="matrix(1 0 0 1 904.7763 570.305)">526</text>
    </g>
    <g data-additional-flag="false" data-section="category-3_529" data-category-aliases="category 3">
      <path d="M959.3,430.5c-1.1-7.7-2.4-15.6-3.8-23.8c-1.8-9.7-3.7-18.9-5.7-27.8c-23,0-46,0-69,0v51.6 C906.9,430.5,933.1,430.5,959.3,430.5z" data-seat="category-3" />
      <text transform="matrix(1 0 0 1 905.7763 408.305)">529</text>
    </g>
  </g>
  <g data-category="category-3">
    <g data-additional-flag="false" data-section="category-4_563" data-category-aliases="category 4">
      <path d="M3.8,487.8c0.1,8,0.4,16.3,0.8,25c0.5,8.9,1.2,17.5,2,25.7c26.3,0,52.6,0,78.9,0v-50.7H3.8L3.8,487.8z" data-seat="category-4" />
      <text transform="matrix(1 0 0 1 39.0579 516.06)">563</text>
    </g>
    <g data-additional-flag="false" data-section="category-4_562" data-category-aliases="category 4">
      <path d="M3.8,483.7c0.1-8,0.4-16.3,0.8-25c0.5-8.9,1.2-17.5,2-25.7c26.3,0,52.6,0,78.9,0v50.7H3.8z" data-seat="category-4" />
      <text transform="matrix(1 0 0 1 39.0579 462.06)">562</text>
    </g>
    <g data-additional-flag="false" data-section="category-4_527" data-category-aliases="category 4">
      <path d="M962.8,488.8c-0.1,8-0.4,16.3-0.8,25c-0.5,8.9-1.2,17.5-2,25.7c-26.3,0-52.6,0-78.9,0v-50.7H962.8L962.8,488.8 z" data-seat="category-4" />
      <text transform="matrix(1 0 0 1 909.7763 516.305)">527</text>
    </g>
    <g data-additional-flag="false" data-section="category-4_528" data-category-aliases="category 4">
      <path d="M962.8,484.7c-0.1-8-0.4-16.3-0.8-25c-0.5-8.9-1.2-17.5-2-25.7c-26.3,0-52.6,0-78.9,0v50.7H962.8z" data-seat="category-4" />
      <text transform="matrix(1 0 0 1 909.7763 462.305)">528</text>
    </g>
  </g>
</svg>